<?xml version="1.0" encoding="utf-8"?>
<!-- Generator: Adobe Illustrator 25.2.1, SVG Export Plug-In . SVG Version: 6.00 Build 0)  -->
<svg version="1.1" xmlns="http://www.w3.org/2000/svg" xmlns:xlink="http://www.w3.org/1999/xlink" x="0px" y="0px"
	 viewBox="0 0 500 500" style="enable-background:new 0 0 500 500;" xml:space="preserve">
<style type="text/css">
	.st0{display:none;}
	.st1{display:inline;}
	.st2{fill:#F5F5F5;}
	.st3{fill:#E0E0E0;}
	.st4{fill:#EBEBEB;}
	.st5{fill:#FAFAFA;}
	.st6{display:inline;fill:#EBEBEB;}
	.st7{fill:#263238;}
	.st8{fill:#455A64;}
	.st9{fill:#FF725E;}
	.st10{opacity:0.3;}
	.st11{fill:#9D6054;}
	.st12{fill:#724A44;}
	.st13{opacity:0.4;}
</style>
<g id="Background_Complete" class="st0">
	<g class="st1">
		<g>
			<rect x="29.29" y="58.41" class="st2" width="222.11" height="146.28"/>
		</g>
		<g>
			<path class="st3" d="M64.08,93.36c0,0-3.11-1.72-5.09,0.39c-0.7,0.75-0.89,3.21,1.85,3.7c0,0,5.93-0.33,8.63-0.82
				c2.7-0.49,8.84-3.19,8.84-3.19l3.19-7.12c0,0,0.41-3.35,0.82-3.44c0.41-0.08,1.64,3.44,1.64,3.44l6.87,1.96l0.74,1.39l-5.56,2.29
				c0,0,0.82,8.84,0.08,10.39c-0.74,1.55-2.86,3.44-2.86,3.44l0.33,12.85c0,0,1.23-0.49,1.31,0.41h-3.27c0,0-1.31-8.02-3.19-8.59
				l0.49-3.35l-12.85-1.06c0,0,0.9,3.03-2.78,5.48c-3.68,2.45-5.32,4.42-5.32,4.42v2.45c0,0,1.06,0.41,1.15,1.31h-3.93
				c0,0,0.49-6.79,0-7.94c0,0,4.82-4.93,4.17-10.96c0,0-5.48-1.39-4.17-6.71C56.47,88.78,62.61,88.7,64.08,93.36z"/>
		</g>
		<g>
			<path class="st3" d="M64.9,134.32c0,0-1.93-1.07-3.16,0.24c-0.44,0.47-0.55,1.99,1.15,2.3c0,0,3.69-0.2,5.36-0.51
				c1.68-0.31,5.49-1.98,5.49-1.98l1.98-4.42c0,0,0.25-2.08,0.51-2.14c0.25-0.05,1.02,2.14,1.02,2.14l4.27,1.22l0.46,0.86
				l-3.46,1.42c0,0,0.51,5.49,0.05,6.46c-0.46,0.97-1.78,2.14-1.78,2.14l0.2,7.98c0,0,0.76-0.31,0.81,0.25h-2.03
				c0,0-0.81-4.98-1.98-5.34l0.31-2.08l-7.98-0.66c0,0,0.56,1.88-1.73,3.41c-2.29,1.53-3.31,2.75-3.31,2.75v1.53
				c0,0,0.66,0.25,0.71,0.81h-2.44c0,0,0.31-4.22,0-4.93c0,0,3-3.06,2.59-6.81c0,0-3.41-0.86-2.59-4.17
				C60.17,131.48,63.98,131.42,64.9,134.32z"/>
		</g>
		<g>
			<path class="st3" d="M63.5,168.32c0,0-1.46-0.8-2.38,0.18c-0.33,0.35-0.41,1.5,0.87,1.73c0,0,2.78-0.15,4.04-0.38
				c1.26-0.23,4.14-1.49,4.14-1.49l1.49-3.33c0,0,0.19-1.57,0.38-1.61c0.19-0.04,0.77,1.61,0.77,1.61l3.22,0.92l0.34,0.65l-2.6,1.07
				c0,0,0.38,4.14,0.04,4.86c-0.34,0.73-1.34,1.61-1.34,1.61l0.15,6.01c0,0,0.57-0.23,0.61,0.19H71.7c0,0-0.61-3.75-1.49-4.02
				l0.23-1.57l-6.01-0.5c0,0,0.42,1.42-1.3,2.57c-1.72,1.15-2.49,2.07-2.49,2.07v1.15c0,0,0.5,0.19,0.54,0.61h-1.84
				c0,0,0.23-3.18,0-3.72c0,0,2.26-2.31,1.95-5.13c0,0-2.57-0.65-1.95-3.14C59.94,166.18,62.81,166.14,63.5,168.32z"/>
		</g>
		<g>
			<g>
				<path class="st3" d="M217.83,99.11c0,0.14-23.1,0.26-51.58,0.26c-28.49,0-51.58-0.12-51.58-0.26c0-0.14,23.09-0.26,51.58-0.26
					C194.74,98.85,217.83,98.96,217.83,99.11z"/>
			</g>
		</g>
		<g>
			<g>
				<path class="st3" d="M217.83,103.09c0,0.14-23.1,0.26-51.58,0.26c-28.49,0-51.58-0.12-51.58-0.26c0-0.14,23.09-0.26,51.58-0.26
					C194.74,102.83,217.83,102.94,217.83,103.09z"/>
			</g>
		</g>
		<g>
			<g>
				<path class="st3" d="M217.83,107.06c0,0.14-23.1,0.26-51.58,0.26c-28.49,0-51.58-0.12-51.58-0.26s23.09-0.26,51.58-0.26
					C194.74,106.8,217.83,106.92,217.83,107.06z"/>
			</g>
		</g>
		<g>
			<g>
				<path class="st3" d="M217.83,111.04c0,0.14-23.1,0.26-51.58,0.26c-28.49,0-51.58-0.12-51.58-0.26c0-0.14,23.09-0.26,51.58-0.26
					C194.74,110.78,217.83,110.9,217.83,111.04z"/>
			</g>
		</g>
		<g>
			<g>
				<path class="st3" d="M217.83,133.58c0,0.14-23.1,0.26-51.58,0.26c-28.49,0-51.58-0.12-51.58-0.26c0-0.14,23.09-0.26,51.58-0.26
					C194.74,133.32,217.83,133.44,217.83,133.58z"/>
			</g>
		</g>
		<g>
			<g>
				<path class="st3" d="M217.83,137.56c0,0.14-23.1,0.26-51.58,0.26c-28.49,0-51.58-0.12-51.58-0.26c0-0.14,23.09-0.26,51.58-0.26
					C194.74,137.3,217.83,137.42,217.83,137.56z"/>
			</g>
		</g>
		<g>
			<g>
				<path class="st3" d="M217.83,141.54c0,0.14-23.1,0.26-51.58,0.26c-28.49,0-51.58-0.12-51.58-0.26c0-0.14,23.09-0.26,51.58-0.26
					C194.74,141.28,217.83,141.4,217.83,141.54z"/>
			</g>
		</g>
		<g>
			<g>
				<path class="st3" d="M217.83,145.52c0,0.14-23.1,0.26-51.58,0.26c-28.49,0-51.58-0.12-51.58-0.26c0-0.14,23.09-0.26,51.58-0.26
					C194.74,145.26,217.83,145.37,217.83,145.52z"/>
			</g>
		</g>
		<g>
			<g>
				<path class="st3" d="M217.83,168.06c0,0.14-23.1,0.26-51.58,0.26c-28.49,0-51.58-0.12-51.58-0.26c0-0.14,23.09-0.26,51.58-0.26
					C194.74,167.8,217.83,167.92,217.83,168.06z"/>
			</g>
		</g>
		<g>
			<g>
				<path class="st3" d="M217.83,172.04c0,0.14-23.1,0.26-51.58,0.26c-28.49,0-51.58-0.12-51.58-0.26s23.09-0.26,51.58-0.26
					C194.74,171.78,217.83,171.89,217.83,172.04z"/>
			</g>
		</g>
		<g>
			<g>
				<path class="st3" d="M217.83,176.02c0,0.14-23.1,0.26-51.58,0.26c-28.49,0-51.58-0.12-51.58-0.26s23.09-0.26,51.58-0.26
					C194.74,175.76,217.83,175.87,217.83,176.02z"/>
			</g>
		</g>
		<g>
			<g>
				<path class="st3" d="M217.83,179.99c0,0.14-23.1,0.26-51.58,0.26c-28.49,0-51.58-0.12-51.58-0.26c0-0.14,23.09-0.26,51.58-0.26
					C194.74,179.73,217.83,179.85,217.83,179.99z"/>
			</g>
		</g>
		<g>
			<g>
				<path class="st3" d="M208.69,79.25c0,1.44-22.92,2.6-51.18,2.6c-28.27,0-51.19-1.17-51.19-2.6c0-1.44,22.91-2.6,51.19-2.6
					C185.77,76.65,208.69,77.81,208.69,79.25z"/>
			</g>
		</g>
	</g>
	<g class="st1">
		<g>
			<g>
				<path class="st4" d="M377.53,55.11h-2.81v-5.32c0-1.73-1.24-3.13-2.77-3.13h-21.39c-1.53,0-2.77,1.4-2.77,3.13v5.32h-2.81v-5.32
					c0-3.28,2.51-5.94,5.59-5.94h21.39c3.08,0,5.59,2.66,5.59,5.94V55.11z"/>
			</g>
		</g>
		<g>
			<g>
				<g>
					<path class="st4" d="M407.25,129.12h-92.44c-5.04,0-9.13-4.09-9.13-9.13V64.24c0-5.04,4.09-9.13,9.13-9.13h92.44
						c5.04,0,9.13,4.09,9.13,9.13V120C416.38,125.04,412.29,129.12,407.25,129.12z"/>
				</g>
			</g>
			<g>
				<g>
					<g>
						<g>
							<g>
								<rect x="357.93" y="77.17" class="st2" width="6.64" height="29.75"/>
							</g>
						</g>
					</g>
					<g>
						<g>
							<g>
								
									<rect x="357.93" y="77.17" transform="matrix(6.123234e-17 -1 1 6.123234e-17 269.2007 453.2962)" class="st2" width="6.64" height="29.75"/>
							</g>
						</g>
					</g>
				</g>
				<g>
					<g>
						<g>
							<g>
								<path class="st2" d="M385.95,92.12c-0.01,0-0.02-0.14-0.05-0.4c-0.02-0.29-0.05-0.68-0.09-1.18
									c-0.02-0.26-0.04-0.55-0.06-0.87c-0.04-0.32-0.1-0.66-0.16-1.03c-0.12-0.75-0.24-1.61-0.52-2.55
									c-0.44-1.91-1.34-4.17-2.76-6.56c-1.43-2.38-3.48-4.87-6.28-6.98c-2.79-2.09-6.3-3.86-10.35-4.58
									c-4.03-0.69-8.57-0.56-12.9,1.08c-1.1,0.35-2.14,0.9-3.2,1.41c-1.01,0.61-2.07,1.17-3.01,1.94c-1,0.69-1.87,1.54-2.78,2.37
									c-0.83,0.91-1.69,1.81-2.4,2.85c-1.46,2.03-2.74,4.28-3.51,6.76c-0.8,2.46-1.23,5.08-1.27,7.74
									c0.04,2.66,0.46,5.28,1.26,7.74c0.77,2.48,2.05,4.73,3.51,6.76c0.71,1.04,1.58,1.93,2.4,2.85c0.91,0.83,1.79,1.68,2.78,2.37
									c0.94,0.76,2,1.33,3.01,1.94c1.06,0.51,2.1,1.06,3.2,1.41c4.33,1.65,8.88,1.77,12.9,1.08c4.05-0.72,7.57-2.49,10.35-4.58
									c2.79-2.11,4.85-4.59,6.27-6.98c1.41-2.39,2.31-4.65,2.76-6.56c0.29-0.94,0.4-1.81,0.52-2.55c0.06-0.37,0.13-0.72,0.16-1.03
									c0.02-0.32,0.04-0.6,0.06-0.87c0.04-0.5,0.06-0.89,0.09-1.18C385.93,92.26,385.95,92.12,385.95,92.12
									c0.01,0,0.01,0.14,0.01,0.4c-0.01,0.29-0.02,0.68-0.03,1.18c-0.01,0.26-0.02,0.55-0.03,0.87c-0.03,0.32-0.09,0.67-0.14,1.04
									c-0.11,0.75-0.21,1.63-0.48,2.58c-0.42,1.93-1.29,4.22-2.7,6.66c-1.42,2.42-3.48,4.96-6.3,7.12
									c-2.81,2.14-6.38,3.97-10.5,4.71c-4.1,0.72-8.73,0.61-13.15-1.05c-1.12-0.36-2.18-0.91-3.27-1.43
									c-1.03-0.62-2.12-1.19-3.08-1.97c-1.02-0.7-1.91-1.57-2.85-2.41c-0.84-0.93-1.73-1.84-2.46-2.9
									c-1.49-2.07-2.8-4.37-3.59-6.9c-0.82-2.52-1.26-5.19-1.29-7.91c0.04-2.72,0.48-5.39,1.3-7.91c0.79-2.53,2.09-4.83,3.59-6.9
									c0.73-1.06,1.61-1.97,2.46-2.9c0.93-0.84,1.83-1.71,2.84-2.41c0.96-0.78,2.04-1.35,3.07-1.97c1.09-0.52,2.14-1.07,3.27-1.43
									c4.42-1.66,9.05-1.78,13.15-1.05c4.12,0.75,7.69,2.57,10.5,4.71c2.82,2.16,4.88,4.7,6.3,7.12c1.41,2.43,2.29,4.72,2.7,6.66
									c0.28,0.95,0.38,1.83,0.48,2.58c0.05,0.38,0.11,0.72,0.14,1.04c0.01,0.32,0.02,0.61,0.03,0.87c0.01,0.5,0.03,0.89,0.03,1.18
									C385.97,91.98,385.96,92.12,385.95,92.12z"/>
							</g>
						</g>
					</g>
				</g>
			</g>
		</g>
		<g>
			<g>
				<g>
					<g>
						<path class="st4" d="M449.5,60.56V49.37h-7.88c0,0.44,0,11.19,0,11.19h-7.91v64.01h23.15V60.56H449.5z"/>
					</g>
				</g>
			</g>
			<g>
				<g>
					<g>
						<rect x="292.94" y="124.57" class="st3" width="190.96" height="9.74"/>
					</g>
				</g>
			</g>
			<g>
				<g>
					<g>
						<rect x="330.26" y="134.32" class="st3" width="5.56" height="23.03"/>
					</g>
				</g>
			</g>
			<g>
				<g>
					<g>
						<rect x="441.44" y="134.32" class="st3" width="5.56" height="23.03"/>
					</g>
				</g>
			</g>
			<g>
				<g>
					<g>
						<path class="st5" d="M406.44,77.78V69.6h-5.76c0,0.32,0,8.18,0,8.18h-5.79v46.79h16.92V77.78H406.44z"/>
					</g>
				</g>
			</g>
			<g>
				<g>
					<g>
						<path class="st2" d="M425.64,77.78V69.6h-5.76c0,0.32,0,8.18,0,8.18h-5.79v46.79h16.92V77.78H425.64z"/>
					</g>
				</g>
			</g>
			<g>
				<g>
					<g>
						<g>
							<rect x="299.86" y="94.17" class="st3" width="30.4" height="30.4"/>
						</g>
					</g>
				</g>
				<g>
					<g>
						<g>
							<g>
								<path class="st4" d="M330.11,101.98c0,0.2-6.71,0.35-14.99,0.35c-8.28,0-14.99-0.16-14.99-0.35c0-0.2,6.71-0.35,14.99-0.35
									C323.4,101.63,330.11,101.79,330.11,101.98z"/>
							</g>
						</g>
					</g>
				</g>
				<g>
					<g>
						<g>
							<g>
								<path class="st4" d="M316.21,105.99c0.01-0.02,0.11-0.01,0.31,0.04c0.2,0.04,0.48,0.17,0.81,0.38
									c0.66,0.43,1.4,1.41,1.67,2.8c0.25,1.34,0.3,3.16-0.78,4.78c-0.52,0.78-1.34,1.49-2.36,1.79c-1.01,0.31-2.12,0.25-3.16-0.03
									c-2.08-0.53-3.88-2.13-4.23-4.07c-0.4-1.88,0.35-3.67,1.43-4.6c1.08-0.95,2.26-1.2,3.03-1.22c0.78-0.02,1.19,0.16,1.18,0.19
									c-0.01,0.06-0.43-0.02-1.15,0.08c-0.71,0.1-1.78,0.41-2.71,1.31c-0.92,0.87-1.52,2.45-1.13,4.09
									c0.33,1.65,1.88,3.03,3.77,3.52c0.94,0.26,1.92,0.3,2.77,0.05c0.85-0.24,1.55-0.82,2.03-1.5c0.97-1.37,1-3.05,0.83-4.31
									c-0.19-1.29-0.79-2.21-1.34-2.67C316.61,106.18,316.19,106.06,316.21,105.99z"/>
							</g>
						</g>
					</g>
				</g>
			</g>
		</g>
	</g>
	<g class="st1">
		<g>
			<g>
				<g>
					<g>
						<path class="st4" d="M47.08,347.31c-6.37-3.29-13.87-3.71-20.94-2.54c-3.8,0.63-7.76,1.76-10.34,4.62
							c-2.58,2.85-3.07,7.87-0.11,10.33c1.77,1.46,4.23,1.68,6.52,1.65c5.53-0.06,11.68-1.04,16.1,2.29c2.52,1.9,4.2,5.06,7.22,5.99
							c2.95,0.91,6.28-0.83,7.85-3.49c1.56-2.66,1.62-5.99,0.89-8.99C54.27,357.16,53.5,350.62,47.08,347.31z"/>
					</g>
				</g>
			</g>
			<g>
				<g>
					<g>
						<path class="st4" d="M61.67,319.15c-3.89,5.56-11.46,3.72-14.97,0.33c-3.51-3.39-4.99-8.31-6.34-13.01
							c-3.08-10.72-6.19-21.97-3.9-32.88c0.69-3.26,1.91-6.52,4.2-8.94c2.29-2.42,5.82-3.86,9.04-3.01c3.82,1.01,6.19,4.75,7.9,8.3
							c5.04,10.45,7.71,22.04,7.75,33.64C65.37,308.99,64.73,314.67,61.67,319.15"/>
					</g>
				</g>
			</g>
			<g>
				<g>
					<g>
						<path class="st4" d="M72.37,327.13c-4.23-5.02-5.03-12.34-3.15-18.62c1.88-6.29,6.13-11.63,11.03-16
							c5.74-5.12,12.49-9.1,19.75-11.65c2.86-1,5.87-1.8,8.88-1.51c3.01,0.29,6.05,1.83,7.45,4.51c2.08,3.96,0.09,8.77-2.07,12.7
							c-3.8,6.91-8.14,13.52-12.97,19.75c-3.89,5.01-8.34,9.96-14.27,12.22c-5.93,2.27-12.08,2-15.22-2.11"/>
					</g>
				</g>
			</g>
			<g>
				<g>
					<g>
						<g>
							<path class="st3" d="M61.94,403.04c-0.07,0-0.19-0.9-0.35-2.53c-0.18-1.84-0.4-4.15-0.67-6.9c-0.32-2.9-0.75-6.36-1.55-10.12
								c-0.8-3.75-2.06-7.82-3.68-11.94c-1.67-4.1-3.71-7.82-6.1-10.8c-2.37-2.99-5.12-5.16-7.71-6.41
								c-2.58-1.27-4.89-1.79-6.49-2.02c-1.61-0.17-2.52-0.29-2.52-0.36c0-0.07,0.9-0.08,2.56-0.04c1.64,0.11,4.05,0.52,6.77,1.76
								c2.73,1.21,5.65,3.41,8.13,6.46c2.5,3.04,4.62,6.85,6.32,11.02c1.64,4.2,2.88,8.3,3.65,12.13c0.77,3.83,1.12,7.32,1.34,10.24
								c0.22,2.93,0.3,5.3,0.34,6.94C62.03,402.13,62.01,403.04,61.94,403.04z"/>
						</g>
					</g>
				</g>
			</g>
			<g>
				<g>
					<g>
						<g>
							<path class="st3" d="M61.46,397.74c-0.04,0-0.06-0.41-0.07-1.17c0-0.88,0.01-1.99,0.01-3.35c0.01-2.91,0.01-7.12-0.15-12.32
								c-0.26-10.4-1.15-21.59-2.88-37.38c-1.64-14.84-3.84-32.11-6.16-43.34c-0.5-2.55-1-4.85-1.47-6.86
								c-0.45-2.02-0.83-3.76-1.2-5.16c-0.32-1.32-0.58-2.4-0.78-3.26c-0.17-0.75-0.24-1.15-0.21-1.16c0.03-0.01,0.17,0.37,0.41,1.1
								c0.26,0.84,0.58,1.91,0.97,3.21c0.43,1.39,0.87,3.12,1.38,5.13c0.53,2,1.08,4.3,1.62,6.85c2.3,10.17,4.73,24.39,6.47,40.21
								c1.73,15.81,2.51,30.21,2.58,40.64c0.06,5.21-0.05,9.43-0.18,12.35c-0.08,1.36-0.15,2.47-0.2,3.35
								C61.54,397.34,61.5,397.74,61.46,397.74z"/>
						</g>
					</g>
				</g>
			</g>
			<g>
				<g>
					<g>
						<g>
							<path class="st3" d="M61.39,369.96c-0.07,0-0.06-1.25,0.02-3.5c0.13-2.25,0.44-5.5,1.07-9.49c0.67-3.98,1.61-8.7,3.09-13.83
								c0.64-2.35,2.14-7.96,5.78-16.36c4.8-11.38,11.31-20.68,16.98-26.44c1.33-1.53,2.81-2.63,3.99-3.71
								c0.61-0.52,1.15-1.03,1.71-1.44c0.55-0.38,1.07-0.74,1.55-1.07c1.87-1.28,2.91-1.95,2.95-1.89c0.17,0.23-4.18,2.79-9.67,8.62
								c-5.47,5.83-11.8,15.06-16.56,26.34c-2.65,6.12-4.5,11.58-5.81,16.21c-1.52,5.08-2.52,9.75-3.28,13.69
								c-0.72,3.95-1.14,7.17-1.39,9.4C61.61,368.73,61.46,369.97,61.39,369.96z"/>
						</g>
					</g>
				</g>
			</g>
		</g>
		<g>
			<g>
				<g>
					<polygon class="st3" points="88.23,418.95 85.45,457.08 36.47,457.08 33.69,418.95 					"/>
				</g>
			</g>
		</g>
		<g>
			<g>
				<g>
					<rect x="27.85" y="403.93" class="st3" width="65.12" height="15.03"/>
				</g>
			</g>
		</g>
		<g>
			<g>
				<g>
					<polygon class="st4" points="92.96,455.62 92.96,459.78 89.9,459.78 28.92,459.78 28.92,455.62 					"/>
				</g>
			</g>
		</g>
		<g>
			<g>
				<g>
					<polygon class="st3" points="86.91,467.11 89.9,459.78 31.26,459.78 34.75,467.11 					"/>
				</g>
			</g>
		</g>
		<g>
			<g>
				<g>
					<g>
						<path class="st2" d="M34.6,431.41c-0.01,0.01,0.07,0.13,0.23,0.35c0.19,0.26,0.44,0.58,0.73,0.97
							c0.7,0.89,1.65,2.11,2.85,3.65l0.13,0.16l0.12-0.17c1.79-2.48,4.19-5.79,7.01-9.69h-0.4c2.08,2.95,4.41,6.24,6.9,9.77
							l0.22,0.31l0.24-0.29c2.55-3.03,5.31-6.32,8.18-9.74l-0.47-0.01c0.14,0.18,0.3,0.37,0.45,0.57c2.54,3.18,5,6.26,7.32,9.17
							l0.24,0.31l0.23-0.32c2.48-3.52,4.81-6.8,6.9-9.77l-0.4,0.02c3.4,3.88,6.29,7.17,8.5,9.69l0.15,0.17l0.12-0.19
							c1.12-1.88,2.01-3.38,2.66-4.47c0.28-0.49,0.5-0.88,0.68-1.19c0.15-0.27,0.22-0.42,0.21-0.42c-0.01-0.01-0.11,0.12-0.29,0.38
							c-0.2,0.3-0.45,0.68-0.76,1.15c-0.68,1.07-1.62,2.54-2.79,4.39l0.27-0.02c-2.18-2.55-5.02-5.88-8.37-9.81l-0.21-0.25
							l-0.19,0.27c-2.12,2.96-4.46,6.23-6.97,9.73l0.47-0.01c-2.32-2.92-4.77-6-7.3-9.19c-0.15-0.19-0.31-0.39-0.45-0.57l-0.23-0.29
							l-0.24,0.29c-2.86,3.42-5.62,6.72-8.16,9.76l0.46,0.02c-2.52-3.51-4.86-6.79-6.97-9.72l-0.2-0.29l-0.2,0.29
							c-2.76,3.94-5.11,7.29-6.86,9.8l0.25-0.01c-1.25-1.5-2.24-2.69-2.97-3.56c-0.32-0.37-0.58-0.68-0.79-0.92
							C34.71,431.5,34.61,431.4,34.6,431.41z"/>
					</g>
				</g>
			</g>
		</g>
		<g>
			<g>
				<g>
					<g>
						<path class="st2" d="M33.01,418.7c0,0.17,12.27,0.3,27.41,0.3c15.14,0,27.41-0.14,27.41-0.3c0-0.17-12.27-0.3-27.41-0.3
							C45.28,418.4,33.01,418.53,33.01,418.7z"/>
					</g>
				</g>
			</g>
		</g>
		<g>
			<g>
				<g>
					<g>
						<path class="st2" d="M30.54,460.19c0,0.17,13.34,0.3,29.79,0.3c16.45,0,29.79-0.14,29.79-0.3c0-0.17-13.33-0.3-29.79-0.3
							C43.87,459.89,30.54,460.03,30.54,460.19z"/>
					</g>
				</g>
			</g>
		</g>
	</g>
	<g class="st1">
		<g>
			<g>
				<g>
					<rect x="368.76" y="170.08" class="st3" width="92.35" height="96.27"/>
				</g>
			</g>
		</g>
		<g>
			<g>
				<g>
					<rect x="362.51" y="170.08" class="st4" width="92.35" height="96.27"/>
				</g>
			</g>
		</g>
		<g>
			<g>
				<g>
					<rect x="374.92" y="183.02" class="st5" width="67.52" height="70.39"/>
				</g>
			</g>
		</g>
		<g>
			<g>
				<g>
					<g>
						<path class="st3" d="M374.92,253.87c0.05,0.05-0.6,0.78-1.69,1.91c-1.08,1.13-2.6,2.67-4.3,4.34c-1.7,1.67-3.26,3.17-4.4,4.23
							c-1.15,1.06-1.88,1.7-1.93,1.65c-0.05-0.05,0.6-0.77,1.68-1.91c1.08-1.13,2.61-2.67,4.31-4.35c1.7-1.68,3.26-3.17,4.41-4.24
							C374.15,254.45,374.88,253.82,374.92,253.87z"/>
					</g>
				</g>
			</g>
		</g>
		<g>
			<g>
				<g>
					<g>
						<path class="st3" d="M442.45,253.7c0.05-0.05,0.78,0.6,1.91,1.69c1.13,1.08,2.67,2.6,4.34,4.3c1.67,1.7,3.17,3.26,4.23,4.4
							c1.06,1.15,1.7,1.88,1.65,1.93c-0.05,0.05-0.77-0.6-1.91-1.68c-1.13-1.08-2.67-2.61-4.35-4.31c-1.68-1.7-3.18-3.26-4.24-4.41
							C443.03,254.48,442.4,253.75,442.45,253.7z"/>
					</g>
				</g>
			</g>
		</g>
		<g>
			<g>
				<g>
					<g>
						<path class="st3" d="M442.26,183.21c-0.05-0.05,0.6-0.78,1.69-1.91c1.08-1.13,2.6-2.67,4.3-4.34c1.7-1.67,3.26-3.17,4.4-4.23
							c1.15-1.06,1.88-1.7,1.93-1.65c0.05,0.05-0.6,0.77-1.68,1.91c-1.08,1.13-2.61,2.67-4.31,4.35c-1.7,1.68-3.26,3.18-4.41,4.24
							C443.04,182.63,442.31,183.26,442.26,183.21z"/>
					</g>
				</g>
			</g>
		</g>
		<g>
			<g>
				<g>
					<g>
						<path class="st3" d="M374.74,183.38c-0.05,0.05-0.78-0.6-1.91-1.69c-1.13-1.08-2.67-2.6-4.34-4.3
							c-1.67-1.7-3.17-3.26-4.23-4.4c-1.06-1.15-1.7-1.88-1.65-1.93c0.05-0.05,0.77,0.6,1.91,1.68c1.13,1.08,2.67,2.61,4.35,4.31
							c1.68,1.7,3.18,3.26,4.24,4.41C374.16,182.6,374.79,183.33,374.74,183.38z"/>
					</g>
				</g>
			</g>
		</g>
		<g>
			<g>
				<g>
					<g>
						<path class="st3" d="M442.26,253.41c0,0-0.01-0.12-0.01-0.34c0-0.23-0.01-0.56-0.01-0.98c-0.01-0.88-0.01-2.15-0.03-3.8
							c-0.01-3.33-0.03-8.18-0.06-14.34c-0.03-12.33-0.07-29.89-0.11-50.93l0.22,0.22c-19.66,0.01-42.74,0.02-67.33,0.03h-0.01
							l0.25-0.25c-0.01,25.84-0.03,50.01-0.04,70.39l-0.22-0.22c20.19,0.05,36.99,0.08,48.77,0.11c5.89,0.02,10.52,0.04,13.69,0.06
							c1.57,0.01,2.78,0.02,3.62,0.03c0.4,0.01,0.71,0.01,0.93,0.01C442.15,253.4,442.26,253.41,442.26,253.41s-0.1,0.01-0.3,0.01
							c-0.22,0-0.52,0.01-0.91,0.01c-0.83,0.01-2.02,0.01-3.58,0.03c-3.16,0.01-7.77,0.03-13.64,0.06
							c-11.81,0.03-28.66,0.07-48.91,0.11l-0.22,0l0-0.22c-0.01-20.38-0.02-44.55-0.04-70.39l0-0.25h0.25h0.01
							c24.59,0.01,47.68,0.02,67.33,0.03l0.22,0l0,0.22c-0.05,21.1-0.09,38.71-0.11,51.07c-0.02,6.14-0.04,10.97-0.06,14.29
							c-0.01,1.63-0.02,2.89-0.03,3.75c-0.01,0.41-0.01,0.73-0.01,0.96C442.27,253.3,442.26,253.41,442.26,253.41z"/>
					</g>
				</g>
			</g>
		</g>
		<g>
			<g>
				<g>
					<g>
						<path class="st4" d="M392.75,212.42c0,0-1.45,17.43,17.43,17.43C410.17,220.55,402.5,213.21,392.75,212.42z"/>
					</g>
				</g>
			</g>
			<g>
				<g>
					<g>
						<path class="st4" d="M427.28,212.44c0,0-17.43-1.45-17.43,17.43C419.15,229.86,426.49,222.19,427.28,212.44z"/>
					</g>
				</g>
			</g>
			<g>
				<g>
					<g>
						<path class="st3" d="M409.34,202.9c0,0-14.24,12.78,0.78,26.95C417.1,222.45,416.51,210.85,409.34,202.9z"/>
					</g>
				</g>
			</g>
		</g>
	</g>
</g>
<g id="Background_Simple" class="st0">
	<path class="st6" d="M203.65,106.5l-1.26-1.11c-10.65-9.32-25.51-12.26-38.59-7.19c-1.68,0.65-3.32,1.43-4.89,2.32
		c-11.31,6.44-18.96,18.96-19.61,32.1c-0.38,7.73,1.42,15.91-1.73,22.94c-4.09,9.15-14.81,12.79-24.39,15.51s-20.3,6.38-24.35,15.55
		c-2.54,5.74-1.77,12.52,0.45,18.43c5.89,15.64,21.48,26.36,37.83,28.96c16.34,2.6,33.15-2.02,47.59-10.03
		c20.24-11.21,37.01-29.69,43.51-52.1C224.72,149.5,219.86,123.32,203.65,106.5z"/>
	
		<ellipse transform="matrix(0.7071 -0.7071 0.7071 0.7071 17.7391 200.2232)" class="st6" cx="250.56" cy="78.7" rx="23.91" ry="23.91"/>
</g>
<g id="Table" class="st0">
	<g class="st1">
		<g>
			<path class="st7" d="M462.14,467.23c0,0.14-94.83,0.26-211.78,0.26c-116.99,0-211.8-0.12-211.8-0.26
				c0-0.14,94.81-0.26,211.8-0.26C367.31,466.97,462.14,467.09,462.14,467.23z"/>
		</g>
	</g>
</g>
<g id="Characters">
	<g>
		<g>
			<path class="st8" d="M210.77,297.15c0,0-20.15-3.15-21.83-3.09c-1.68,0.06-17.66,3.19-17.66,3.19s-22.61,4.01-24.89,5.64
				c-2.28,1.63-0.6,6.79-0.6,6.79c2.51,0.97,10.42-0.57,10.42-0.57s-0.03,2.12,1.39,4.99c1.42,2.87,5.3,2.15,5.3,2.15l-3.03,1.56
				c0,0,0.25,2.31,1.36,5.3c1.11,2.99,8.31,2.56,8.31,2.56s1.91,4.28,4.89,5.01c2.98,0.72,18.55-2.93,23.17-3.44
				c4.62-0.51,13.48-5.97,13.48-5.97s6.82,2.41,10.86,3.23l2.27-29.35C222.54,294.99,210.77,297.15,210.77,297.15z"/>
		</g>
		<g>
			<path class="st9" d="M130.04,390.27c-8.59-2.16-15.1-9.68-18.05-18.03c-2.95-8.35-2.84-17.47-1.96-26.29
				c0.16-1.64,0.34-3.39-0.39-4.87c-1.16-2.35-4.31-3.17-6.82-2.4c-2.51,0.78-4.45,2.76-6.05,4.83
				c-8.81,11.38-10.18,28.02-3.34,40.69c6.83,12.67,21.49,20.66,35.84,19.55"/>
		</g>
		<g>
			<path class="st9" d="M195.12,307.37c0,0,20.13,34.87,25.22,48.89c5.09,14.02,11.57,52.57,11.57,52.57s30.23,7.79,11.5,40.28
				c-6.92,12.01-6.3,17.59-14.06,17.94c-6.05,0.28-54.72-0.09-54.72-0.09l0.88,4.77c0,0-4.07,13.78-12.32,9.89
				s-17.95-14.66-17.95-14.66l-14.17-0.19l-33.77,0.19l-9.88-0.19c0.01-0.09,0.02-0.18,0.03-0.27c0.67-5.48,4.53-10.05,9.81-11.65
				l7.24-2.2c0,0-9.41-39.52-1.26-48.97c8.15-9.45,21.41-8.83,21.41-8.83l-6.09-40.66c-1.21-9.54-0.25-19.22,2.82-28.34l4.57-13.59
				L195.12,307.37z"/>
		</g>
		<g>
			<g>
				<path class="st7" d="M125.18,396.22c13.95,7.93,23.38,21.22,28.06,36.41c0.05,0.15,0.29,0.09,0.24-0.07
					c-3.63-11.77-10.07-22.67-19.59-30.63c-2.68-2.24-5.55-4.21-8.59-5.93C125.16,395.92,125.04,396.14,125.18,396.22L125.18,396.22
					z"/>
			</g>
		</g>
		<g>
			<g>
				<path class="st9" d="M125.47,313.66c0,0-6.56,17.54-7.11,26.31c-0.91,14.56,6.29,54.86,6.29,54.86s-2.47,39.52-4.61,45.37
					c-2.14,5.85-1.24,11.26-10.99,13.26c-2.64,0.54-7.22,9.06-7.22,13.29h27.27c0,0,7.38-8.34,7.73-16.14
					c0.36-7.81,13.32-50.17,13.32-50.17"/>
			</g>
			<g>
				<g>
					<path class="st7" d="M150.15,400.44c0,0-0.02,0.11-0.08,0.32c-0.06,0.23-0.15,0.53-0.26,0.93c-0.24,0.84-0.6,2.05-1.06,3.63
						c-0.92,3.19-2.27,7.85-3.97,13.74c-1.67,5.92-3.71,13.1-5.75,21.38c-0.5,2.07-1,4.21-1.44,6.43c-0.1,0.55-0.2,1.11-0.3,1.68
						c-0.1,0.56-0.13,1.13-0.21,1.7c-0.06,0.58-0.12,1.17-0.18,1.76c-0.1,0.59-0.21,1.18-0.35,1.77c-1.25,4.68-3.92,9.09-7.28,13.12
						l-0.06,0.08l-0.11,0c-8.42,0.01-17.63,0.01-27.27,0.02l-0.26,0l0.01-0.25c0.11-2.67,1.16-5.15,2.34-7.54
						c0.61-1.19,1.29-2.36,2.1-3.45c0.42-0.54,0.85-1.08,1.36-1.55c0.47-0.49,1.16-0.91,1.86-1.06c2.6-0.58,5.31-1.54,7.03-3.67
						c1.74-2.12,2.17-4.99,2.99-7.7c0.14-0.51,0.32-1.01,0.49-1.51c0.16-0.5,0.28-0.99,0.42-1.48c0.2-1.01,0.42-2.02,0.56-3.05
						c0.32-2.04,0.57-4.08,0.8-6.11c0.47-4.06,0.83-8.07,1.18-12.02c0.68-7.89,1.24-15.53,1.72-22.81l0,0.06
						c-2.07-11.93-3.72-23.03-4.89-32.99c-0.58-4.98-1.04-9.67-1.26-14.04c-0.21-4.36-0.27-8.44,0.5-12.04
						c0.69-3.59,1.58-6.75,2.39-9.49c0.82-2.74,1.58-5.05,2.22-6.93c0.64-1.88,1.16-3.31,1.52-4.27c0.18-0.47,0.32-0.83,0.42-1.09
						c0.1-0.24,0.16-0.36,0.16-0.36s-0.03,0.13-0.12,0.38c-0.09,0.26-0.22,0.63-0.38,1.1c-0.33,0.99-0.82,2.43-1.45,4.3
						c-0.61,1.88-1.36,4.2-2.15,6.94c-0.78,2.74-1.65,5.9-2.32,9.48c-0.75,3.57-0.67,7.61-0.44,11.97
						c0.24,4.36,0.71,9.04,1.31,14.01c1.19,9.94,2.87,21.03,4.96,32.95l0.01,0.03l0,0.03c-0.47,7.29-1.01,14.92-1.69,22.82
						c-0.34,3.95-0.71,7.97-1.17,12.03c-0.23,2.03-0.48,4.08-0.8,6.13c-0.14,1.03-0.36,2.05-0.56,3.08
						c-0.14,0.51-0.27,1.04-0.43,1.54c-0.17,0.49-0.34,0.98-0.48,1.48c-0.4,1.35-0.72,2.72-1.15,4.08c-0.43,1.35-1.02,2.69-1.93,3.8
						c-0.91,1.12-2.1,1.95-3.37,2.56c-1.26,0.63-2.62,0.97-3.96,1.29c-0.64,0.14-1.14,0.45-1.62,0.93c-0.48,0.44-0.9,0.96-1.3,1.48
						c-0.79,1.06-1.46,2.21-2.06,3.38c-1.16,2.33-2.18,4.82-2.29,7.31l-0.25-0.25c9.64,0.01,18.85,0.01,27.27,0.02l-0.17,0.08
						c3.32-3.97,5.98-8.35,7.21-12.92c0.14-0.57,0.25-1.15,0.35-1.72c0.06-0.58,0.12-1.16,0.18-1.73c0.07-0.58,0.12-1.17,0.22-1.74
						c0.1-0.57,0.21-1.13,0.31-1.69c0.44-2.23,0.95-4.37,1.46-6.45c2.08-8.29,4.15-15.45,5.86-21.37c1.72-5.91,3.13-10.55,4.1-13.71
						c0.49-1.57,0.86-2.77,1.12-3.61c0.13-0.4,0.23-0.7,0.3-0.92C150.1,400.54,150.15,400.44,150.15,400.44z"/>
				</g>
			</g>
		</g>
		<g>
			<g>
				<path class="st7" d="M197.9,331.9c0,0,0.1,0.22,0.26,0.65c0.17,0.45,0.41,1.08,0.72,1.92c0.63,1.71,1.54,4.19,2.72,7.39
					c2.33,6.43,5.7,15.73,9.61,27.32c0.97,2.9,1.97,5.94,2.96,9.13c0.5,1.59,0.97,3.23,1.43,4.91c0.43,1.7,0.68,3.46,0.91,5.24
					c0.86,7.15,1.28,14.83,1.74,22.9c0.45,8.07,0.84,16.55,1.43,25.32c0.31,4.38,0.63,8.85,1.25,13.34c0.16,1.12,0.34,2.24,0.6,3.34
					c0.12,0.55,0.28,1.1,0.47,1.61c0.1,0.26,0.22,0.5,0.36,0.7c0.07,0.09,0.15,0.18,0.22,0.2c0.05,0.04,0.25,0.09,0.37,0.14
					c1.11,0.36,2.23,0.81,3.19,1.52c0.51,0.31,0.92,0.76,1.37,1.16c0.38,0.47,0.78,0.92,1.06,1.45c1.24,2.11,1.48,4.63,1.03,6.97
					l-0.04,0.2l-0.21,0c-10.54,0.01-20.75,0.03-30.49,0.04l-0.26,0l0-0.25c0.04-2.62,0.61-5.1,1.16-7.54
					c0.58-2.43,1.24-4.8,1.95-7.12l-0.01,0.11c-1.84-12.01-3.58-23.11-5.21-33.01c-0.83-4.94-1.59-9.6-2.46-13.87
					c-0.12-0.53-0.21-1.07-0.35-1.58l-0.2-0.76c-0.06-0.26-0.21-0.46-0.31-0.7c-0.47-0.9-1.1-1.73-1.71-2.52
					c-1.22-1.59-2.49-3.03-3.69-4.4c-4.87-5.43-8.94-9.55-11.69-12.38c-1.38-1.4-2.44-2.48-3.18-3.23
					c-0.35-0.36-0.62-0.63-0.82-0.83c-0.18-0.19-0.27-0.29-0.27-0.29s0.1,0.08,0.3,0.26c0.2,0.19,0.48,0.46,0.84,0.8
					c0.75,0.73,1.83,1.8,3.23,3.17c2.79,2.8,6.89,6.88,11.8,12.29c1.21,1.37,2.49,2.8,3.73,4.4c0.62,0.8,1.25,1.61,1.75,2.57
					c0.11,0.25,0.27,0.48,0.33,0.74l0.21,0.78c0.15,0.52,0.23,1.06,0.36,1.59c0.89,4.29,1.67,8.93,2.51,13.88
					c1.67,9.89,3.44,21,5.29,33l0.01,0.05l-0.02,0.05c-0.71,2.3-1.37,4.67-1.93,7.09c-0.54,2.42-1.1,4.91-1.14,7.42l-0.25-0.25
					c9.74-0.02,19.95-0.04,30.49-0.06l-0.25,0.2c0.42-2.18,0.18-4.62-0.98-6.58c-0.26-0.5-0.64-0.92-0.99-1.36
					c-0.42-0.38-0.8-0.8-1.29-1.09c-0.9-0.68-1.97-1.1-3.04-1.45c-0.15-0.06-0.23-0.07-0.43-0.16c-0.21-0.09-0.31-0.23-0.42-0.36
					c-0.19-0.27-0.32-0.55-0.43-0.82c-0.21-0.56-0.37-1.12-0.5-1.68c-0.26-1.13-0.44-2.26-0.6-3.39c-0.62-4.52-0.94-8.99-1.24-13.37
					c-0.58-8.78-0.96-17.26-1.4-25.33c-0.45-8.07-0.85-15.74-1.69-22.87c-0.23-1.78-0.47-3.53-0.89-5.19
					c-0.45-1.67-0.92-3.3-1.41-4.9c-0.97-3.19-1.96-6.23-2.92-9.13c-3.86-11.6-7.18-20.92-9.45-27.37
					c-1.14-3.21-2.02-5.71-2.63-7.42c-0.29-0.84-0.52-1.48-0.68-1.93C197.97,332.12,197.9,331.9,197.9,331.9z"/>
			</g>
		</g>
		<g>
			<g>
				<path class="st7" d="M171.27,424.04c-0.01,0.01-0.2-0.13-0.56-0.43c-0.39-0.33-0.9-0.76-1.53-1.3c-1.3-1.16-3.14-2.9-5.27-5.18
					c-4.3-4.53-9.76-11.22-15.27-18.97c-5.48-7.79-9.98-15.16-12.8-20.72c-1.43-2.77-2.45-5.09-3.1-6.71
					c-0.29-0.78-0.52-1.41-0.69-1.89c-0.15-0.43-0.23-0.66-0.21-0.67c0.02-0.01,0.12,0.21,0.31,0.63c0.2,0.47,0.46,1.08,0.78,1.84
					c0.7,1.59,1.77,3.87,3.24,6.61c2.89,5.51,7.44,12.82,12.9,20.59c5.5,7.74,10.9,14.45,15.12,19.02c2.09,2.31,3.88,4.08,5.13,5.28
					c0.6,0.57,1.09,1.02,1.46,1.37C171.11,423.85,171.28,424.03,171.27,424.04z"/>
			</g>
		</g>
		<g>
			<g>
				<path class="st9" d="M154.5,420.17c1.83,5.91,3.09,11.99,3.66,18.16c0.12,1.34,1.06,2.5,2.5,2.5c1.26,0,2.62-1.15,2.5-2.5
					c-0.61-6.61-1.87-13.14-3.83-19.49c-0.4-1.29-1.74-2.11-3.08-1.75C154.97,417.45,154.1,418.88,154.5,420.17L154.5,420.17z"/>
			</g>
		</g>
		<g>
			<g>
				<path class="st9" d="M125.63,317.68c-0.85-21.39-2.39-46.37-0.07-54.5c2.32-8.14,18.71-24.22,28.11-27.95
					c9.4-3.73,24.99,1.25,29.7,5.41l29.63-7.16c0,0,5.81,13.47-1.36,24.27c-7.16,10.8-28.27,10.67-28.27,10.67
					s-1.89,11.75,7.13,12.79c9.03,1.03,21.05-0.39,22.21,9.44l-18.55,1.66l1.04,16.36l-35.29,18.76l-33.06-9.54"/>
			</g>
			<g>
				<g>
					<g>
						<g>
							<g>
								<g>
									<g>
										<g>
											<path class="st7" d="M151.01,248.21c0.03,0,0.09,0.3,0.19,0.89c0.1,0.69,0.22,1.54,0.37,2.58c0.3,2.37,0.7,5.59,1.19,9.5
												c0.48,4.05,1.04,8.83,1.66,14.1c0.31,2.65,0.64,5.46,0.66,8.4c0,2.93-0.27,6.04-1.49,9c-1.22,2.93-3.53,5.37-6.32,6.55
												c-2.78,1.23-5.8,1.27-8.48,0.75c-2.68-0.57-5.08-1.8-6.9-3.42c-1.82-1.62-3.14-3.5-4.04-5.35
												c-1.83-3.7-2.17-7.09-2.24-9.34c-0.02-1.14,0.03-2.02,0.1-2.61c0.07-0.59,0.12-0.9,0.15-0.9c0.08,0.01-0.04,1.26,0.1,3.5
												c0.17,2.22,0.61,5.52,2.45,9.07c0.91,1.77,2.21,3.55,3.96,5.08c1.75,1.51,4.03,2.65,6.58,3.17
												c2.54,0.47,5.39,0.41,7.97-0.75c2.58-1.11,4.69-3.34,5.85-6.1c1.15-2.77,1.43-5.78,1.44-8.64
												c-0.01-2.88-0.32-5.65-0.61-8.31c-0.55-5.28-1.04-10.06-1.47-14.12c-0.38-3.93-0.68-7.15-0.91-9.53
												c-0.08-1.04-0.15-1.9-0.2-2.6C150.99,248.52,150.98,248.21,151.01,248.21z"/>
										</g>
									</g>
								</g>
							</g>
						</g>
					</g>
				</g>
			</g>
			<g>
				<g>
					<g>
						<g>
							<g>
								<g>
									<g>
										<path class="st7" d="M204.17,235.73c-0.11,1.54,0.62,3.22,1.62,4.32c1,1.1,2.42,1.72,3.83,2.18
											c1.84,0.6,3.9,0.96,5.67,0.18c0-2.38-0.37-4.76-1.1-7.02c-0.22-0.7-0.55-1.46-1.22-1.75c-0.38-0.16-0.8-0.15-1.21-0.12
											C209.11,233.72,206.51,234.48,204.17,235.73"/>
									</g>
								</g>
							</g>
						</g>
					</g>
				</g>
			</g>
			<g class="st10">
				<g>
					<g>
						<g>
							<g>
								<g>
									<g>
										<g>
											<path d="M125.94,283.74c0.8,5.29,2.26,11.09,5.87,15.03c3.62,3.94,9.29,6.27,14.46,4.88c6.34-1.7,10.27-8.45,10.77-15
												c0.5-6.55-1.68-12.97-3.83-19.18c1.03,5.9,2.06,12,0.68,17.83c-1.38,5.83-5.83,11.37-11.78,12.09
												c-4.13,0.5-8.35-1.46-11.1-4.59C128.27,291.68,126.23,287.89,125.94,283.74"/>
										</g>
									</g>
								</g>
							</g>
						</g>
					</g>
				</g>
			</g>
			<g>
				<g>
					<g>
						<g>
							<g>
								<g>
									<g>
										<g>
											<path class="st7" d="M215.39,244.76c0.05,0,0.08,0.56,0.01,1.55c-0.07,0.99-0.26,2.43-0.67,4.17
												c-0.41,1.74-1.08,3.77-2.13,5.91c-1.07,2.11-2.57,4.35-4.77,6.08c-2.18,1.72-4.58,2.83-6.79,3.64
												c-2.22,0.82-4.3,1.31-6.04,1.64c-1.75,0.32-3.19,0.48-4.18,0.53c-0.99,0.05-1.54,0.03-1.55-0.03
												c-0.01-0.15,2.17-0.33,5.6-1.12c1.71-0.4,3.73-0.94,5.88-1.79c2.14-0.84,4.47-1.94,6.53-3.57
												c2.07-1.62,3.52-3.74,4.59-5.76c1.06-2.04,1.78-4.01,2.26-5.69C215.08,246.94,215.23,244.75,215.39,244.76z"/>
										</g>
									</g>
								</g>
							</g>
						</g>
					</g>
				</g>
			</g>
			<g>
				<g>
					<g>
						<g>
							<g>
								<g>
									<g>
										<path class="st7" d="M172.23,249.24c-1.74,0.71-2.16,3.44-0.7,4.63c1.45,1.19,4.06,0.25,4.4-1.6
											c0.35-1.85-1.73-3.68-3.52-3.1"/>
									</g>
								</g>
							</g>
						</g>
					</g>
				</g>
			</g>
			<g>
				<g>
					<g>
						<g>
							<g>
								<g>
									<g>
										<g>
											<path class="st7" d="M162.04,252.41c-0.33,0.13-0.88-0.3-1.29-1.24c-0.42-0.93-0.63-2.39-0.3-3.93
												c0.33-1.54,1.12-2.78,1.89-3.46c0.77-0.69,1.44-0.85,1.69-0.6c0.51,0.56-0.51,2.33-0.97,4.62
												C162.53,250.08,162.74,252.11,162.04,252.41z"/>
										</g>
									</g>
								</g>
							</g>
						</g>
					</g>
				</g>
			</g>
		</g>
		<g>
			<g>
				<path class="st7" d="M198.86,427.35c0,0.06-1.03,0-2.87,0.09c-0.92,0.04-2.05,0.14-3.33,0.38c-1.28,0.24-2.71,0.69-4.13,1.49
					c-2.86,1.6-5.65,4.45-8.86,7.4c-3.16,2.99-6.09,6.89-10.26,9.89c-2.07,1.5-4.44,2.51-6.83,2.9c-2.39,0.39-4.7,0.34-6.86,0.51
					c-2.16,0.17-4.22,0.54-5.89,1.48c-1.68,0.9-2.99,2.18-3.92,3.52c-1.86,2.7-2.33,5.46-2.26,7.27c0.06,1.84,0.44,2.81,0.37,2.83
					c0,0-0.45-0.95-0.58-2.82c-0.13-1.84,0.28-4.68,2.16-7.48c0.93-1.39,2.27-2.73,4.01-3.69c1.74-1,3.87-1.39,6.05-1.58
					c2.19-0.19,4.5-0.15,6.82-0.54c2.31-0.39,4.59-1.36,6.61-2.82c4.07-2.92,7.02-6.81,10.22-9.81c3.23-2.94,6.04-5.77,9.01-7.38
					c1.47-0.8,2.95-1.23,4.26-1.45c1.31-0.22,2.45-0.29,3.37-0.3c0.93-0.02,1.65,0.01,2.13,0.04
					C198.6,427.31,198.86,427.34,198.86,427.35z"/>
			</g>
		</g>
		<g>
			<g>
				<path class="st7" d="M161.62,457.82c0-0.03,0.32-0.08,0.92-0.08c0.59,0,1.45,0.07,2.5,0.3c2.07,0.44,4.9,1.69,7.1,4.15
					c2.2,2.46,3.13,5.42,3.34,7.52c0.11,1.06,0.09,1.92,0.02,2.51c-0.07,0.59-0.15,0.91-0.18,0.9c-0.1-0.01,0.1-1.31-0.21-3.37
					c-0.29-2.04-1.25-4.86-3.36-7.22c-2.11-2.36-4.81-3.62-6.8-4.14C162.93,457.86,161.61,457.92,161.62,457.82z"/>
			</g>
		</g>
		<g>
			<g>
				<path class="st7" d="M171.49,471c0.05,0.01-0.07,0.94-0.74,2.28c-0.65,1.33-1.95,3.04-3.91,4.25c-1.96,1.21-4.08,1.59-5.56,1.58
					c-1.5-0.01-2.38-0.31-2.37-0.36c0.01-0.09,0.91,0.08,2.35-0.01c1.43-0.08,3.43-0.5,5.3-1.65c1.87-1.15,3.14-2.74,3.86-3.99
					C171.15,471.85,171.4,470.98,171.49,471z"/>
			</g>
		</g>
		<g>
			<g>
				<path class="st7" d="M162.86,464.55c0.02,0.08-0.8,0.24-2.01,0.75c-1.21,0.5-2.81,1.43-4.17,2.9c-1.36,1.47-2.16,3.13-2.57,4.37
					c-0.42,1.25-0.51,2.07-0.6,2.06c-0.06,0-0.1-0.85,0.24-2.17c0.33-1.31,1.12-3.09,2.54-4.62c1.42-1.54,3.13-2.46,4.42-2.89
					C162,464.51,162.85,464.49,162.86,464.55z"/>
			</g>
		</g>
		<g>
			<g>
				<path class="st7" d="M219.81,467.69c-0.08-0.02,0.08-0.79,0.21-2.03c0.12-1.23,0.21-3-0.43-4.77c-0.64-1.75-1.99-2.97-3.09-3.46
					c-1.12-0.52-1.93-0.43-1.93-0.52c-0.02-0.04,0.82-0.28,2.07,0.19c1.23,0.44,2.73,1.71,3.43,3.62c0.68,1.9,0.52,3.75,0.3,5
					C220.15,466.97,219.87,467.71,219.81,467.69z"/>
			</g>
		</g>
		<g>
			<g>
				<path class="st7" d="M121.07,456.23c-0.01,0.09-0.93-0.02-2.37,0.19c-1.43,0.2-3.41,0.83-5.14,2.21
					c-1.73,1.39-2.77,3.18-3.28,4.53c-0.52,1.36-0.61,2.29-0.7,2.27c-0.05,0-0.1-0.95,0.36-2.4c0.44-1.43,1.48-3.35,3.3-4.82
					c1.83-1.46,3.93-2.06,5.42-2.17C120.16,455.93,121.08,456.17,121.07,456.23z"/>
			</g>
		</g>
		<g>
			<g>
				<path class="st7" d="M245.57,447.11c-0.04-0.04,0.48-0.63,1.24-1.83c0.76-1.19,1.73-3.01,2.48-5.43
					c0.73-2.41,1.23-5.42,1.1-8.75c-0.12-3.33-0.87-6.99-2.5-10.47c-1.63-3.48-4.07-6.35-6.83-8.22c-2.73-1.91-5.58-3.04-8.05-3.51
					c-2.48-0.46-4.56-0.26-5.91,0.12c-0.68,0.2-1.2,0.37-1.53,0.53c-0.35,0.14-0.53,0.21-0.54,0.19c-0.01-0.02,0.16-0.11,0.5-0.29
					c0.33-0.19,0.84-0.4,1.52-0.63c1.36-0.45,3.49-0.71,6.03-0.28c2.53,0.43,5.46,1.55,8.26,3.48c1.4,0.96,2.77,2.15,3.95,3.57
					c1.19,1.42,2.23,3.05,3.07,4.82c1.66,3.56,2.41,7.29,2.51,10.68c0.11,3.4-0.44,6.45-1.23,8.88c-0.81,2.44-1.84,4.26-2.67,5.43
					c-0.42,0.58-0.75,1.02-1.01,1.3C245.72,446.98,245.58,447.12,245.57,447.11z"/>
			</g>
		</g>
		<g>
			<g>
				<path class="st7" d="M124.58,395.96c-0.01,0.15-2.56-0.87-6.77-0.38c-2.08,0.22-4.53,0.9-7.01,2.13
					c-2.46,1.25-4.97,3.1-6.94,5.61c-1.01,1.23-1.74,2.61-2.26,4.02c-0.51,1.41-0.81,2.84-1.04,4.21c-0.4,2.75-0.45,5.27-0.43,7.38
					c0.02,2.11,0.08,3.83,0.11,5.01c0.01,0.54,0.01,0.99,0.02,1.36c0,0.31-0.01,0.48-0.03,0.48c-0.02,0-0.04-0.16-0.07-0.47
					c-0.03-0.37-0.07-0.82-0.11-1.36c-0.09-1.18-0.21-2.89-0.27-5.01c-0.06-2.12-0.06-4.66,0.33-7.46c0.21-1.39,0.51-2.85,1.03-4.31
					c0.53-1.45,1.3-2.9,2.33-4.17c2.03-2.58,4.61-4.46,7.13-5.71c2.55-1.23,5.05-1.88,7.18-2.06c2.13-0.19,3.87-0.03,5.03,0.23
					c0.59,0.09,1.03,0.26,1.33,0.34C124.43,395.89,124.58,395.94,124.58,395.96z"/>
			</g>
		</g>
		<g>
			<g>
				<path class="st7" d="M83.33,374.31c-0.04,0.01-0.12-0.38-0.26-1.09c-0.14-0.71-0.27-1.75-0.36-3.03
					c-0.19-2.57-0.1-6.18,0.71-10.05c0.82-3.87,2.2-7.21,3.42-9.48c0.61-1.14,1.15-2.04,1.56-2.63c0.41-0.6,0.65-0.92,0.68-0.9
					c0.08,0.05-0.79,1.39-1.91,3.69c-1.12,2.3-2.42,5.6-3.23,9.42c-0.8,3.82-0.95,7.37-0.85,9.92
					C83.17,372.73,83.42,374.3,83.33,374.31z"/>
			</g>
		</g>
		<g>
			<g>
				<path class="st7" d="M80.12,375.87c-0.04,0.01-0.14-0.38-0.29-1.09c-0.16-0.71-0.34-1.74-0.5-3.03
					c-0.33-2.57-0.51-6.17-0.13-10.12c0.39-3.95,1.25-7.45,2.07-9.91c0.41-1.23,0.78-2.21,1.08-2.87c0.29-0.66,0.46-1.02,0.5-1.01
					c0.08,0.03-0.5,1.52-1.22,3.99c-0.72,2.47-1.52,5.95-1.9,9.85c-0.37,3.91-0.26,7.47-0.02,10.03
					C79.92,374.28,80.21,375.86,80.12,375.87z"/>
			</g>
		</g>
		<g class="st10">
			<g>
				<path d="M145.35,415.52c4.15,4.55,7.15,10.13,8.66,16.1c0.33,1.33,0.59,2.77,0.05,4.02c-1.15,2.69-4.85,2.82-7.39,4.28
					c-2.12,1.22-3.44,3.44-4.66,5.56c-4.13,7.19-8.26,14.37-12.4,21.56c3.83-0.32,5.25,0.09,9.08-0.23l6.16,0.13
					c-0.23,0.1-1.2-2.93-1.28-4.35c-0.25-4.34,2.68-9.59,6.57-11.52c4.9-2.43,10.52-0.4,15.49-2.68c4.75-2.18,7.59-5.52,10.68-8.59
					c3.88-3.85,7.72-8.95,12.7-11.22c2.25-1.03,7.62-1.13,7.62-1.13c-2.56-3-7.24-2.85-11.05-1.82c-3.81,1.03-7.71,2.68-11.56,1.82
					c-3.23-0.73-5.8-3.11-8.19-5.4c-6.13-5.86-12.47-12.05-15.21-20.08c-1.71,4.41-3.41,8.81-5.12,13.22"/>
			</g>
		</g>
		<g class="st10">
			<g>
				<path d="M229.35,467.05c1.98-4.86-2.53-10.6-4.35-15.52c-1.84-4.99-1.44-10.47-1.43-15.79c0.02-11.18-1.79-22.36-5.36-32.96
					c-0.4,14.57,1.27,30.05,2.14,44.6c0.18,3.09-0.05,6.66,2.21,8.77c1.16,1.08,1.85,0.6,3.15,1.51
					C226.99,458.56,229.55,460.61,229.35,467.05"/>
			</g>
		</g>
		<g>
			<g>
				<path class="st7" d="M170.46,323.43c-0.03,0.12-2.58-0.78-5-2.99c-2.44-2.2-3.57-4.65-3.46-4.69c0.14-0.09,1.44,2.18,3.81,4.31
					C168.15,322.2,170.53,323.29,170.46,323.43z"/>
			</g>
		</g>
		<g>
			<g>
				<path class="st7" d="M174.21,321.38c-0.04,0.13-2.19-0.57-4.45-2.17c-2.26-1.59-3.64-3.38-3.54-3.46
					c0.12-0.11,1.63,1.49,3.84,3.04C172.26,320.34,174.27,321.23,174.21,321.38z"/>
			</g>
		</g>
		<g>
			<g>
				<path class="st7" d="M179.15,321.2c-0.03,0.13-2.14-0.41-4.33-1.9c-2.2-1.48-3.48-3.24-3.37-3.31c0.12-0.1,1.53,1.45,3.66,2.88
					C177.23,320.32,179.2,321.05,179.15,321.2z"/>
			</g>
		</g>
		<g>
			<g>
				<path class="st7" d="M145.14,364.15c-0.04,0.12-2.5-1.05-4.65-3.55c-2.18-2.48-3-5.07-2.88-5.09c0.15-0.07,1.16,2.36,3.27,4.75
					C142.96,362.67,145.23,364.01,145.14,364.15z"/>
			</g>
		</g>
		<g>
			<g>
				<path class="st7" d="M148.83,364.2c-0.07,0.11-1.96-1.11-3.71-3.23c-1.76-2.11-2.6-4.2-2.48-4.25c0.14-0.07,1.17,1.86,2.88,3.91
					C147.22,362.7,148.92,364.08,148.83,364.2z"/>
			</g>
		</g>
		<g>
			<g>
				<path class="st7" d="M155.26,365.45c-0.11,0.1-1.69-1.43-3.54-3.42c-1.85-1.99-3.27-3.68-3.16-3.78
					c0.11-0.1,1.69,1.43,3.54,3.42C153.95,363.66,155.37,365.36,155.26,365.45z"/>
			</g>
		</g>
		<g>
			<g>
				<path class="st7" d="M135.42,282.23c-0.04,0.05-0.44-0.18-0.96-0.72c-0.52-0.53-1.11-1.4-1.49-2.48
					c-0.37-1.08-0.43-2.14-0.35-2.87c0.08-0.74,0.26-1.17,0.32-1.16c0.16,0.02-0.2,1.82,0.52,3.86
					C134.14,280.92,135.53,282.12,135.42,282.23z"/>
			</g>
		</g>
		<g>
			<g>
				<path class="st7" d="M137.18,281.46c-0.11,0.08-1-1.02-1.5-2.66c-0.52-1.64-0.4-3.05-0.27-3.05c0.15,0,0.27,1.33,0.77,2.89
					C136.65,280.21,137.3,281.38,137.18,281.46z"/>
			</g>
		</g>
		<g>
			<g>
				<path class="st7" d="M141.15,283.95c-0.11,0.08-1.34-1.42-2.31-3.59c-0.98-2.17-1.3-4.08-1.17-4.11
					c0.15-0.04,0.68,1.78,1.64,3.89C140.26,282.26,141.27,283.86,141.15,283.95z"/>
			</g>
		</g>
	</g>
	<g>
		<g>
			<path class="st7" d="M258.92,99.35c-7.75,4.75-10.38,16.21-10.71,25.3s2.15,18,4.15,26.87c2.01,8.87,3.56,18.16,1.38,26.98
				c-2.02,8.18-7.12,16.79-3.45,24.37c2.77,5.72,9.86,8.69,11.82,14.74c2.28,7.06-3.49,13.96-8.79,19.15
				c2.41,3.93,8.1,5.41,12.11,3.13c-0.12,2.14-1.18,4.22-2.85,5.57c6.01,1.55,12.85-0.84,16.59-5.79c-0.73,2.52-1.47,5.04-2.2,7.56
				c6.02-1.39,11.44-5.24,14.74-10.46c0.85,1.59,1.7,3.18,2.55,4.77c9.76-6.7,16.53-17.23,19.86-28.59s3.37-23.5,1.46-35.18
				C310.17,144.79,288.54,114.85,258.92,99.35"/>
		</g>
		<g>
			<g>
				<path class="st7" d="M372.34,182.63c-3.47-4.17-7.76-8.31-8.23-13.72c-0.21-2.39,0.36-4.84-0.18-7.17
					c-1.4-6.03-9.24-8.41-11.6-14.13c-2.97-7.18,3.78-16.68-1.21-22.63c-2.4-2.85-6.53-3.41-9.69-5.4
					c-8.02-5.07-6.06-19.05-25.24-29.14l1.43,30.62c6.46,25.89,11.59,52.11,15.37,78.53c14.44-0.71,28.88-1.42,43.32-2.13
					C378.78,192.63,375.82,186.8,372.34,182.63z"/>
			</g>
			<g>
				<g>
					<g>
						<g>
							<path class="st7" d="M249.75,110.51c0.42-7.62,4.06-15.02,9.84-20c6.35-5.48,14.92-7.91,23.31-8.03
								c8.39-0.12,16.66,1.91,24.64,4.49c4.48,1.45,8.99,3.13,12.63,6.11c6.64,5.45,9.28,14.26,11.59,22.54
								c1.86,6.69,3.74,13.72,2.2,20.49c-1.41,6.21-5.82,11.68-11.59,14.38"/>
						</g>
					</g>
				</g>
				<g>
					<g>
						<g>
							<path class="st7" d="M252.07,104.75c-4.51,7.65-6.33,16.84-5.08,25.63c1.25,8.79,5.56,17.11,12.02,23.2
								c0.22-19.29,2.13-38.56,5.69-57.52"/>
						</g>
					</g>
				</g>
				<g>
					<g>
						<g>
							<g>
								<g>
									<g>
										<path class="st11" d="M250.31,131.31c-2-13.53,3.36-31.8,16.97-33.22l32.45,1.23c10.41,0.4,18.78,7.31,21.68,17.32
											c0.14,0.5,0.06-0.13,0.14,0.25l15.1,81.07c2.45,13.29-6.28,26.07-19.56,28.63l0,0c-13.13,2.53-25.87-5.89-28.7-18.96
											c-1.41-6.5-3.06-14.15-3.05-14.12c0,0-17.66,0.8-25.93-20.71C255.3,162.11,252.53,146.34,250.31,131.31z"/>
									</g>
								</g>
							</g>
						</g>
					</g>
				</g>
				<g>
					<g>
						<g>
							<g>
								<path class="st12" d="M279.39,117.77c0.07,0.13-2.61,1.57-6.17,2.71c-3.55,1.16-6.57,1.56-6.59,1.41
									c-0.03-0.16,2.9-0.8,6.42-1.95C276.57,118.83,279.32,117.63,279.39,117.77z"/>
							</g>
						</g>
					</g>
				</g>
				<g>
					<g>
						<g>
							<g>
								<path class="st12" d="M274.25,118.05c0.06,0.14-1.61,1-3.85,1.6c-2.23,0.61-4.11,0.71-4.13,0.57
									c-0.02-0.16,1.79-0.51,3.98-1.11C272.45,118.52,274.19,117.9,274.25,118.05z"/>
							</g>
						</g>
					</g>
				</g>
				<g>
					<g>
						<g>
							<g>
								<path class="st12" d="M292.98,160.1c-0.15,0.05-0.53-0.82-1.55-1.2c-1.01-0.42-1.88-0.05-1.95-0.19
									c-0.04-0.06,0.14-0.26,0.54-0.4c0.39-0.14,1.01-0.17,1.62,0.07c0.6,0.24,1.04,0.68,1.23,1.05
									C293.06,159.82,293.05,160.09,292.98,160.1z"/>
							</g>
						</g>
					</g>
				</g>
				<g>
					<g>
						<g>
							<g>
								<g>
									<g>
										<g>
											<g>
												<g>
													<g>
														<g>
															<g>
																<g>
																	<g>
																		<path class="st7" d="M258.96,147.68c0.27,1.52,1.77,2.54,3.37,2.29c1.59-0.25,2.66-1.68,2.39-3.2
																			c-0.27-1.52-1.77-2.55-3.36-2.3C259.77,144.73,258.7,146.16,258.96,147.68z"/>
																	</g>
																</g>
															</g>
														</g>
													</g>
												</g>
											</g>
										</g>
									</g>
								</g>
							</g>
						</g>
					</g>
				</g>
				<g>
					<g>
						<g>
							<g>
								<g>
									<g>
										<g>
											<g>
												<g>
													<g>
														<g>
															<g>
																<g>
																	<g>
																		<g>
																			<path class="st7" d="M256.26,139.91c0.43,0.3,2.26-1.76,5.33-2.41c3.06-0.69,5.65,0.41,5.9-0.03
																				c0.13-0.2-0.38-0.8-1.51-1.3c-1.12-0.51-2.91-0.85-4.82-0.43c-1.91,0.42-3.37,1.46-4.14,2.38
																				C256.23,139.04,256.05,139.78,256.26,139.91z"/>
																		</g>
																	</g>
																</g>
															</g>
														</g>
													</g>
												</g>
											</g>
										</g>
									</g>
								</g>
							</g>
						</g>
					</g>
				</g>
				<g>
					<g>
						<g>
							<g>
								<g>
									<g>
										<g>
											<g>
												<g>
													<g>
														<g>
															<g>
																<g>
																	<g>
																		<path class="st7" d="M286.59,141.65c0.27,1.52,1.77,2.54,3.36,2.29c1.59-0.25,2.66-1.68,2.39-3.2
																			c-0.27-1.52-1.77-2.55-3.36-2.3C287.4,138.7,286.32,140.13,286.59,141.65z"/>
																	</g>
																</g>
															</g>
														</g>
													</g>
												</g>
											</g>
										</g>
									</g>
								</g>
							</g>
						</g>
					</g>
				</g>
				<g>
					<g>
						<g>
							<g>
								<g>
									<g>
										<g>
											<g>
												<g>
													<g>
														<g>
															<g>
																<g>
																	<g>
																		<g>
																			<path class="st7" d="M286.57,134.06c0.43,0.3,2.26-1.76,5.33-2.41c3.06-0.69,5.65,0.41,5.9-0.03
																				c0.13-0.2-0.37-0.8-1.51-1.3c-1.12-0.51-2.91-0.85-4.82-0.43c-1.91,0.42-3.37,1.46-4.14,2.38
																				C286.54,133.19,286.36,133.93,286.57,134.06z"/>
																		</g>
																	</g>
																</g>
															</g>
														</g>
													</g>
												</g>
											</g>
										</g>
									</g>
								</g>
							</g>
						</g>
					</g>
				</g>
				<g>
					<g>
						<g>
							<g>
								<g>
									<g>
										<g>
											<g>
												<g>
													<g>
														<g>
															<g>
																<g>
																	<g>
																		<g>
																			<path class="st7" d="M280.27,159.21c-0.02-0.18-2-0.1-5.18,0.16c-0.8,0.09-1.58,0.09-1.82-0.42
																				c-0.31-0.53-0.16-1.44,0.03-2.44c0.33-2.05,0.68-4.21,1.05-6.47c1.41-9.19,2.26-16.68,1.89-16.73
																				c-0.37-0.05-1.82,7.35-3.23,16.54c-0.33,2.26-0.65,4.42-0.94,6.48c-0.11,0.95-0.4,2.07,0.25,3.16
																				c0.34,0.54,1,0.84,1.53,0.87c0.54,0.05,0.98-0.04,1.37-0.1C278.36,159.79,280.3,159.39,280.27,159.21z"/>
																		</g>
																	</g>
																</g>
															</g>
														</g>
													</g>
												</g>
											</g>
										</g>
									</g>
								</g>
							</g>
						</g>
					</g>
				</g>
				<g>
					<g>
						<g>
							<path class="st12" d="M313.15,179.26c0,0-3.95,16.84-26.67,19.49l-1.13-5.23C285.34,193.52,300.21,191.33,313.15,179.26z"/>
						</g>
					</g>
				</g>
				<g>
					<g>
						<g>
							<g>
								<g>
									<g>
										<g>
											<g>
												<g>
													<g>
														<g>
															<g>
																<g>
																	<g>
																		<path class="st12" d="M283.14,166.34c0.79-1.7,2.56-2.91,4.52-3.11c1.36-0.14,2.85,0.22,3.89,1.13
																			c1.04,0.91,1.54,2.42,1.02,3.61c-0.58,1.34-2.26,1.98-3.81,1.87c-1.55-0.1-3.02-0.8-4.42-1.51
																			c-0.39-0.2-0.79-0.4-1.07-0.72c-0.28-0.32-0.43-0.79-0.24-1.14"/>
																	</g>
																</g>
															</g>
														</g>
													</g>
												</g>
											</g>
										</g>
									</g>
								</g>
							</g>
						</g>
					</g>
				</g>
				<g>
					<g>
						<g>
							<g>
								<g>
									<g>
										<g>
											<g>
												<g>
													<g>
														<g>
															<g>
																<g>
																	<g>
																		<g>
																			<path class="st7" d="M289.76,159.41c-0.51,0.08,0.2,3.41-2.15,6.39c-2.34,2.98-5.98,3.36-5.9,3.83
																				c0,0.22,0.93,0.48,2.44,0.2c1.48-0.26,3.53-1.19,4.97-3.01c1.43-1.82,1.77-3.92,1.59-5.31
																				C290.53,160.09,289.99,159.35,289.76,159.41z"/>
																		</g>
																	</g>
																</g>
															</g>
														</g>
													</g>
												</g>
											</g>
										</g>
									</g>
								</g>
							</g>
						</g>
					</g>
				</g>
				<g>
					<g>
						<g>
							<g>
								<g>
									<g>
										<g>
											<g>
												<g>
													<g>
														<g>
															<path class="st7" d="M283.9,125.23c0.48,0.77,3.46-0.28,7.16-0.61c3.69-0.41,6.82,0.03,7.14-0.82
																c0.14-0.4-0.54-1.08-1.88-1.64c-1.34-0.56-3.36-0.93-5.57-0.71c-2.21,0.22-4.12,0.99-5.32,1.8
																C284.21,124.06,283.69,124.86,283.9,125.23z"/>
														</g>
													</g>
												</g>
											</g>
										</g>
									</g>
								</g>
							</g>
						</g>
					</g>
				</g>
				<g>
					<g>
						<g>
							<g>
								<g>
									<g>
										<g>
											<g>
												<g>
													<g>
														<g>
															<path class="st7" d="M255.5,130.78c0.69,0.58,2.65-0.59,5.19-1.17c2.52-0.66,4.8-0.53,5.14-1.37
																c0.14-0.4-0.35-1.03-1.43-1.49c-1.07-0.46-2.73-0.67-4.47-0.24c-1.74,0.43-3.12,1.38-3.85,2.28
																C255.33,129.71,255.19,130.49,255.5,130.78z"/>
														</g>
													</g>
												</g>
											</g>
										</g>
									</g>
								</g>
							</g>
						</g>
					</g>
				</g>
				<g>
					<g>
						<g>
							<path class="st7" d="M251.99,109.69c0.64-3.64,3.88-6.44,7.45-7.4c3.57-0.96,7.39-0.35,10.9,0.79
								c14.9,4.81,25.61,18.42,40.41,23.53c3.64,1.26,7.51,1.99,10.81,3.99c3.29,1.99,5.96,5.74,5.18,9.51
								c1.24-2.79,2.49-5.63,2.89-8.66c0.4-3.03-0.18-6.33-2.23-8.59c-1.55-1.72-3.88-2.79-4.9-4.87c-0.9-1.83-0.57-4.02-1.08-5.99
								c-0.52-2.01-1.88-3.68-3.26-5.24c-7.08-7.97-15.9-14.65-26.08-17.8c-6.65-2.06-13.86-2.55-20.61-0.85
								c-6.75,1.69-13.01,5.66-16.99,11.37C252.15,102.82,249.67,106.31,251.99,109.69"/>
						</g>
					</g>
				</g>
				<g>
					<g>
						<g>
							<g>
								<path class="st7" d="M335.21,143.47c-0.59-0.15-0.64-1.68-1.08-4.08c-0.23-1.18-0.58-2.61-1.31-3.8
									c-0.18-0.29-0.38-0.57-0.6-0.81c-0.1-0.14-0.24-0.22-0.34-0.34c-0.1-0.1-0.32-0.29-0.48-0.44c-0.7-0.61-1.48-1.24-2.3-1.74
									c-0.79-0.51-1.7-0.91-2.21-0.94c-0.26-0.03-0.3,0.06-0.18,0.07c-0.25,0.11-0.5,0.21-0.75,0.32
									c-0.26,0.12-0.53,0.25-0.8,0.38c-1.04,0.52-1.97,1.11-2.91,1.87c-0.46,0.38-0.93,0.8-1.39,1.25l-0.35,0.35l-0.6,0.56
									c-0.41,0.35-0.84,0.68-1.27,0.97c-1.75,1.17-3.67,2.04-6.03,2.4c-1.18,0.17-2.5,0.2-3.95-0.14l-0.54-0.14l-0.43-0.15
									c-0.29-0.1-0.58-0.19-0.86-0.32c-0.56-0.24-1.1-0.5-1.62-0.81c-2.07-1.21-3.64-2.82-4.93-4.38
									c-1.28-1.57-2.33-3.15-3.31-4.58c-3.77-5.54-8.32-10.07-12.93-13.64c-4.61-3.57-9.28-6.13-13.38-7.94
									c-4.11-1.88-7.44-2.81-9.85-3.15c-2.4-0.35-3.89-0.26-4.1-0.83c-0.21-0.49,1.01-1.72,3.9-2.43
									c2.86-0.72,7.22-0.53,11.99,0.8c4.81,1.25,10.4,3.55,15.93,7.26c5.52,3.68,11.01,8.79,15.35,15.17
									c1.05,1.53,1.97,2.92,2.89,4.08c0.91,1.15,1.81,2.04,2.66,2.57c0.21,0.14,0.42,0.25,0.63,0.35c0.1,0.06,0.21,0.08,0.32,0.13
									l0.16,0.07l0.07,0.02c0.17,0.06,0.53,0.11,0.96,0.08c0.88-0.06,1.99-0.44,2.86-0.95c0.22-0.13,0.42-0.26,0.61-0.39l0.26-0.2
									l0.5-0.42c0.67-0.56,1.36-1.09,2.09-1.58c1.45-0.99,3.05-1.78,4.57-2.33c0.38-0.14,0.75-0.26,1.12-0.38l0.55-0.16l0.62-0.17
									c1.4-0.39,2.72-0.22,3.7,0.08c1.99,0.63,3.21,1.61,4.27,2.53c1.05,0.94,1.88,1.89,2.62,2.85c0.19,0.26,0.34,0.45,0.54,0.75
									c0.19,0.3,0.4,0.59,0.55,0.89c0.32,0.6,0.55,1.19,0.73,1.77c0.67,2.31,0.47,4.18,0.22,5.62
									C336.81,142.34,335.74,143.62,335.21,143.47z"/>
							</g>
						</g>
					</g>
				</g>
				<g>
					<g>
						<g>
							<g>
								<g>
									<g>
										<g>
											<g>
												<g>
													<g>
														<g>
															<g>
																<g>
																	<g>
																		<g>
																			<g>
																				<g>
																					<path class="st11" d="M322.75,133.98c0.1-0.69,10.8-7.37,13.61,4.93c2.73,11.95-9.87,12.19-9.97,11.85
																						C326.29,150.43,322.75,133.98,322.75,133.98z"/>
																				</g>
																			</g>
																		</g>
																	</g>
																</g>
															</g>
														</g>
													</g>
												</g>
											</g>
										</g>
									</g>
								</g>
							</g>
						</g>
					</g>
					<g>
						<g>
							<g>
								<g>
									<g>
										<g>
											<g>
												<g>
													<g>
														<g>
															<g>
																<g>
																	<g>
																		<g>
																			<g>
																				<g>
																					<g>
																						<path class="st12" d="M329.06,145.41c0.04-0.05,0.24,0.1,0.63,0.18c0.38,0.08,0.99,0.06,1.56-0.32
																							c1.16-0.75,1.77-2.99,1.35-5.16c-0.21-1.09-0.68-2.08-1.25-2.85c-0.56-0.79-1.26-1.28-1.93-1.25
																							c-0.67,0-1.03,0.48-1.1,0.85c-0.08,0.37,0.04,0.59-0.01,0.63c-0.03,0.04-0.3-0.14-0.32-0.66
																							c0-0.25,0.07-0.56,0.3-0.86c0.23-0.3,0.63-0.51,1.08-0.56c0.94-0.14,1.96,0.52,2.59,1.36
																							c0.69,0.84,1.23,1.94,1.47,3.17c0.47,2.43-0.26,4.96-1.88,5.85c-0.79,0.41-1.55,0.31-1.98,0.11
																							C329.15,145.69,329.02,145.44,329.06,145.41z"/>
																					</g>
																				</g>
																			</g>
																		</g>
																	</g>
																</g>
															</g>
														</g>
													</g>
												</g>
											</g>
										</g>
									</g>
								</g>
							</g>
						</g>
					</g>
				</g>
			</g>
		</g>
		<g>
			<g>
				<g>
					<path class="st3" d="M282.51,220.92c0,0-7.29,2.6-10.6,10.98c-3.31,8.38-17.69,59.39-17.69,59.39l-30.01,3.85l-2.27,27.72
						c0,0,11.48,3.24,26.47,4.56c11.06,0.98,28.93-0.65,33.6-3.26c4.66-2.61-0.46-102.07-0.46-102.07L282.51,220.92z"/>
				</g>
			</g>
			<g>
				<path class="st8" d="M288.59,213.35c9.5,10.79,34.46-11.09,45.57-28.48l-35.74,167.85l-6.1-1.49L288.59,213.35z"/>
			</g>
			<g>
				<path class="st3" d="M287.85,205.98l-2.3,10.9l-8.51,7.76c-0.11,14.24,7.59,42.68,5.67,48.39c-2.73,8.14-3.82,16.59-0.55,28.47
					c1.67,6.08,11.78,49.74,11.78,49.74s-2.92,114.25-2.61,115.72h23.24l-22.69-151.95l-0.92-95.21L287.85,205.98z"/>
			</g>
			<g>
				<path class="st3" d="M436.94,394.56c-7.2-17.99-33.83-64.06-33.83-64.06s-2.16-16.19-3.96-51.82
					c-1.8-35.63-17.27-75.57-20.51-81.69c-3.24-6.12-39.24-12.12-39.24-12.12l-6.29-9.17c0,0-13.43,35.26-14.15,36.34
					c-0.72,1.08-15.09,43.36-16.53,55.24c-1.44,11.88-5.48,75.82-5.48,75.82l17.62,123.86h130.92
					C445.48,466.95,444.14,412.55,436.94,394.56z"/>
			</g>
			<g>
				<g>
					<path class="st7" d="M315.67,390.08c1.87-0.21,26.19-2.96,65.13-7.35l0.23-0.03l0.02,0.23c1.85,19.93,4.05,43.59,6.4,68.88
						c0.26,2.79,0.51,5.56,0.77,8.3l0.03,0.28l-0.28,0.01c-18.86,0.43-36.64,0.84-52.36,1.2l-0.18,0l-0.05-0.18
						c-5.8-21.24-10.67-39.09-14.09-51.64c-1.74-6.25-3.12-11.18-4.06-14.56c-0.48-1.67-0.86-2.95-1.12-3.84
						c-0.13-0.42-0.23-0.74-0.31-0.98C315.71,390.18,315.66,390.08,315.67,390.08c0,0,0.07,0.11,0.16,0.31
						c0.08,0.22,0.2,0.54,0.34,0.97c0.29,0.86,0.68,2.14,1.18,3.82c1,3.35,2.42,8.27,4.19,14.53c3.53,12.51,8.47,30.34,14.28,51.59
						l-0.23-0.17c15.71-0.38,33.49-0.8,52.35-1.26l-0.25,0.28c-0.25-2.74-0.51-5.51-0.77-8.3c-2.32-25.29-4.49-48.95-6.32-68.89
						l0.25,0.2C341.88,387.3,317.54,389.88,315.67,390.08z"/>
				</g>
			</g>
			<g>
				<g>
					<path class="st7" d="M382.32,399.25c0.01,0.14-13.97,1.28-31.22,2.54c-17.26,1.26-31.25,2.17-31.26,2.02
						c-0.01-0.14,13.97-1.28,31.22-2.54C368.32,400.01,382.31,399.1,382.32,399.25z"/>
				</g>
			</g>
			<g>
				<g>
					<path class="st7" d="M402.63,330.31c0.02,0.03-0.26,0.21-0.77,0.5c-0.51,0.3-1.28,0.68-2.24,1.12
						c-1.92,0.88-4.69,1.89-7.88,2.5c-3.19,0.6-6.12,0.71-8.23,0.69c-1.06-0.02-1.91-0.05-2.5-0.1c-0.59-0.05-0.91-0.09-0.91-0.12
						c0-0.08,1.31-0.08,3.41-0.14c2.1-0.07,5-0.24,8.14-0.83c3.14-0.6,5.89-1.54,7.83-2.32
						C401.42,330.8,402.59,330.23,402.63,330.31z"/>
				</g>
			</g>
			<g>
				<g>
					<path class="st7" d="M403.11,330.5c0.05,0.05-0.79,0.94-2.22,2.3c-1.43,1.36-3.46,3.18-5.74,5.14
						c-2.22,1.91-4.22,3.64-5.83,5.02c-1.49,1.28-2.42,2.08-2.47,2.03c-0.05-0.05,0.79-0.94,2.22-2.3c1.43-1.36,3.46-3.18,5.74-5.15
						c2.22-1.91,4.22-3.64,5.83-5.02C402.13,331.24,403.06,330.45,403.11,330.5z"/>
				</g>
			</g>
			<g>
				<g>
					<path class="st9" d="M358.62,427.34c-2.51-0.91-5.25-1.27-7.56,0.06c-1.87,1.07-2.77,3.41-2.53,5.55
						c0.24,2.14,1.46,4.07,2.98,5.59c1.04,1.04,2.32,1.95,3.79,2.03c1.64,0.09,3.14-0.89,4.35-1.99c1.23-1.12,2.33-2.46,2.88-4.03
						c0.55-1.58,0.49-3.42-0.45-4.81c-1.08-1.61-3.07-2.3-4.91-2.9"/>
				</g>
				<g>
					<path class="st9" d="M350.07,425.97c0.19-1.06,0.12-2.18-0.33-3.16c-0.45-0.98-1.32-1.78-2.36-2.03
						c-1.05-0.25-2.25,0.13-2.86,1.01c-0.44,0.64-0.55,1.46-0.45,2.23c0.18,1.36,1.05,2.67,2.34,3.15
						C347.69,427.64,349.46,427.2,350.07,425.97"/>
				</g>
				<g>
					<path class="st9" d="M361.25,426.52c1.08-0.03,2.16-0.32,3.03-0.96c0.86-0.64,1.48-1.65,1.52-2.73
						c0.03-1.08-0.58-2.18-1.57-2.6c-0.71-0.31-1.54-0.25-2.27,0c-1.3,0.45-2.41,1.57-2.62,2.93
						C359.13,424.52,359.92,426.18,361.25,426.52"/>
				</g>
				<g>
					<path class="st9" d="M366.71,430.03c0.74-0.02,1.49-0.22,2.09-0.66c0.6-0.44,1.02-1.14,1.05-1.88c0.02-0.74-0.4-1.5-1.08-1.8
						c-0.49-0.21-1.06-0.17-1.57,0c-0.9,0.31-1.66,1.08-1.81,2.02C365.24,428.65,365.79,429.79,366.71,430.03"/>
				</g>
				<g>
					<path class="st9" d="M355.12,424.69c1.17-0.5,2.23-1.3,2.9-2.38c0.67-1.08,0.9-2.46,0.47-3.65c-0.43-1.19-1.58-2.13-2.85-2.17
						c-0.91-0.02-1.8,0.4-2.49,1c-1.23,1.06-1.95,2.77-1.59,4.35C351.92,423.42,353.51,424.89,355.12,424.69"/>
				</g>
			</g>
			<g>
				<g>
					<path class="st7" d="M302.43,299.96c-0.01,0,0.02-0.1,0.07-0.3c0.07-0.22,0.15-0.5,0.25-0.86c0.24-0.78,0.59-1.88,1.03-3.28
						c0.92-2.87,2.24-6.98,3.88-12.05c3.33-10.2,7.93-24.28,13.05-39.93l-0.01,0.04c0.1-0.7,0.2-1.45,0.31-2.21
						c0.96-6.77,1.88-13.28,2.73-19.33l0.01-0.07l0.05-0.06c4.37-4.89,8.39-9.39,11.92-13.34l-0.05,0.11
						c1.11-7.26,2.02-13.21,2.66-17.38c0.33-2.04,0.58-3.65,0.76-4.78c0.09-0.52,0.16-0.94,0.21-1.25c0.05-0.28,0.08-0.42,0.09-0.42
						c0.01,0,0,0.15-0.03,0.43c-0.04,0.31-0.09,0.73-0.16,1.26c-0.15,1.14-0.37,2.75-0.65,4.79c-0.6,4.18-1.45,10.14-2.48,17.41
						l-0.01,0.06l-0.04,0.05c-3.51,3.96-7.51,8.48-11.86,13.39l0.06-0.13c-0.85,6.06-1.76,12.57-2.71,19.34
						c-0.11,0.76-0.21,1.51-0.31,2.21l0,0.02l-0.01,0.02c-5.17,15.63-9.83,29.69-13.2,39.88c-1.7,5.05-3.07,9.13-4.03,12
						c-0.48,1.38-0.85,2.47-1.12,3.25c-0.13,0.35-0.23,0.62-0.3,0.84C302.48,299.87,302.44,299.97,302.43,299.96z"/>
				</g>
			</g>
			<g>
				<g>
					<path class="st7" d="M291.27,312.41c-0.01,0-0.03-0.07-0.05-0.2c-0.03-0.16-0.06-0.35-0.11-0.59
						c-0.09-0.56-0.21-1.32-0.37-2.28c-0.31-2.03-0.74-4.91-1.27-8.48c-1.05-7.26-2.5-17.33-4.15-28.79l0-0.03l0-0.03
						c0.36-2.87,0.74-5.85,1.12-8.9c0.66-5.21,1.3-10.22,1.9-14.91l0.07,0.2c-2.64-2.75-5.13-5.35-7.43-7.75l-0.08-0.08l0.02-0.11
						c1.29-7.06,2.37-12.95,3.14-17.12c0.39-2.03,0.69-3.64,0.91-4.78c0.11-0.52,0.19-0.94,0.26-1.26c0.06-0.28,0.1-0.43,0.11-0.43
						c0.01,0,0,0.15-0.04,0.44c-0.05,0.32-0.11,0.74-0.19,1.27c-0.19,1.15-0.46,2.76-0.79,4.8c-0.72,4.18-1.73,10.07-2.95,17.15
						l-0.06-0.19c2.31,2.39,4.81,4.97,7.46,7.71l0.08,0.09l-0.01,0.12c-0.59,4.69-1.22,9.71-1.88,14.91
						c-0.39,3.05-0.77,6.03-1.13,8.9l0-0.07c1.58,11.47,2.97,21.55,3.98,28.82c0.47,3.58,0.85,6.47,1.12,8.5
						c0.12,0.97,0.21,1.73,0.28,2.29c0.02,0.24,0.04,0.43,0.06,0.59C291.28,312.34,291.28,312.41,291.27,312.41z"/>
				</g>
			</g>
			<g>
				<g>
					<path class="st7" d="M314.54,466.84c-0.14,0.02-3.68-24.08-7.91-53.82c-4.23-29.75-7.54-53.87-7.4-53.89
						c0.14-0.02,3.68,24.07,7.91,53.82C311.37,442.69,314.68,466.82,314.54,466.84z"/>
				</g>
			</g>
		</g>
		<g>
			<g>
				<polyline class="st11" points="231.99,335.67 252.23,329.85 264.81,359.13 236.63,358.25 231.99,336.86 				"/>
			</g>
			<g>
				<path class="st3" d="M252.23,329.85l16.45,38.3c0,0,82.24-23.47,88.11-30.06s18.33-66.04,20.44-77.55
					c2.11-11.51,4.46-58.33-5.4-65.82c-9.87-7.49-19.5-5.85-28.9,4.49c-7.61,8.38-20.02,56.29-24.45,74.19
					c-1.09,4.41-1.38,8.97-0.86,13.48l0.87,7.49c0,0-7.75,7.05-8.22,13.63L252.23,329.85z"/>
			</g>
			<g>
				<g>
					<path class="st7" d="M332,224.76c0,0-0.1,0.42-0.31,1.23c-0.22,0.82-0.55,2.02-0.97,3.59c-0.87,3.17-2.14,7.81-3.78,13.78
						c-1.65,5.98-3.66,13.28-5.99,21.74c-0.58,2.12-1.19,4.3-1.81,6.56c-0.68,2.25-1.15,4.6-1.4,7.07
						c-0.24,2.46-0.26,5.02,0.02,7.61c0.3,2.6,0.62,5.27,0.94,8.01l0.01,0.1l-0.07,0.07c-1.83,1.75-3.58,3.73-5.09,5.97
						c-1.49,2.22-2.8,4.75-3.06,7.53l-0.01,0.14l-0.12,0.05c-17.33,6.54-36.92,13.93-58.02,21.89l0.14-0.33
						c5.25,12.22,10.77,25.06,16.46,38.3l-0.31-0.15c6.78-1.95,13.96-4.06,21.21-6.23c14.13-4.25,27.88-8.51,41.05-12.97
						c6.57-2.25,13.03-4.51,19.17-7.14c1.54-0.65,3.03-1.36,4.47-2.15c0.7-0.42,1.41-0.83,1.97-1.37c0.29-0.26,0.49-0.61,0.72-0.93
						c0.2-0.35,0.4-0.7,0.59-1.05c1.43-2.91,2.45-5.99,3.43-9.02c1.92-6.09,3.52-12.11,5.01-17.97c1.49-5.87,2.85-11.58,4.12-17.12
						c2.53-11.08,4.76-21.43,6.6-30.92c1.72-9.5,2.71-18.2,3.3-25.85c0.57-7.65,0.65-14.28,0.23-19.66
						c-0.42-5.38-1.36-9.52-2.63-12.07c-1.19-2.62-2.64-3.39-2.55-3.45c0,0,0.29,0.24,0.84,0.72c0.25,0.26,0.53,0.63,0.87,1.05
						c0.26,0.47,0.66,0.97,0.94,1.63c1.31,2.55,2.28,6.71,2.73,12.1c0.45,5.4,0.4,12.03-0.14,19.7c-0.56,7.66-1.52,16.37-3.23,25.89
						c-1.81,9.5-4.02,19.86-6.54,30.94c-1.27,5.54-2.61,11.27-4.1,17.14c-1.49,5.87-3.08,11.9-5,18.01c-0.98,3.05-2,6.13-3.46,9.1
						c-0.19,0.37-0.41,0.73-0.61,1.09c-0.25,0.34-0.47,0.72-0.78,1.01c-0.63,0.61-1.36,1.03-2.08,1.46
						c-1.46,0.8-2.97,1.52-4.52,2.18c-6.16,2.65-12.62,4.91-19.2,7.17c-13.18,4.47-26.94,8.74-41.07,12.99
						c-7.26,2.18-14.43,4.29-21.22,6.23l-0.22,0.06l-0.09-0.21c-5.68-13.24-11.19-26.08-16.44-38.3l-0.1-0.24l0.24-0.09
						c21.11-7.93,40.71-15.3,58.05-21.82l-0.14,0.18c0.28-2.91,1.63-5.48,3.14-7.73c1.53-2.26,3.3-4.25,5.16-6.03l-0.06,0.17
						c-0.31-2.74-0.62-5.41-0.92-8.01c-0.27-2.62-0.25-5.2,0-7.68c0.25-2.48,0.74-4.88,1.43-7.12c0.63-2.26,1.24-4.44,1.83-6.56
						c2.37-8.45,4.41-15.74,6.08-21.71c1.68-5.96,2.99-10.59,3.88-13.75c0.45-1.57,0.79-2.76,1.02-3.58
						C331.86,225.17,332,224.76,332,224.76z"/>
				</g>
			</g>
			<g>
				<g>
					<path class="st7" d="M320.95,316.77c-0.15,0.1-1.51-2.93-4.62-5.39c-3.07-2.5-6.32-3.18-6.26-3.35
						c0.01-0.06,0.83,0.03,2.08,0.45c1.25,0.42,2.92,1.23,4.5,2.49c1.58,1.27,2.73,2.73,3.41,3.86
						C320.74,315.97,321,316.75,320.95,316.77z"/>
				</g>
			</g>
			<g>
				<g>
					<path class="st7" d="M339.4,301.23c-0.08,0.06-0.83-1.12-2.43-2.64c-1.58-1.52-4.13-3.32-7.35-4.28
						c-3.22-0.96-6.34-0.85-8.5-0.45c-2.17,0.39-3.44,0.97-3.47,0.88c-0.01-0.03,0.29-0.2,0.87-0.45c0.58-0.25,1.44-0.54,2.54-0.79
						c2.18-0.5,5.39-0.68,8.72,0.31c3.32,0.99,5.92,2.9,7.46,4.52c0.78,0.81,1.34,1.53,1.69,2.05
						C339.27,300.91,339.42,301.22,339.4,301.23z"/>
				</g>
			</g>
			<g>
				<g>
					<g>
						<path class="st9" d="M250.65,371.41c-11.18,0-26.67-3.87-46.06-11.51c-14.35-5.66-25.63-11.39-25.74-11.45l1.82-3.56
							c0.44,0.23,44.42,22.53,69.98,22.53c10.1,0,17.92-4.88,23.23-14.5c4.09-7.4,5.1-14.95,5.11-15.03
							c0.27-1.6,6.3-37.57,8.37-47.17c1.08-5.01,3.97-13.22,6.76-21.16c2.55-7.26,5.2-14.77,5.73-17.98
							c1.09-6.52,0.3-20.79,0.29-20.94l3.99-0.23c0.03,0.6,0.82,14.86-0.34,21.82c-0.59,3.55-3.17,10.88-5.9,18.65
							c-2.75,7.83-5.6,15.92-6.62,20.68c-2.05,9.51-8.26,46.54-8.32,46.91C282.92,338.72,278.44,371.41,250.65,371.41z"/>
					</g>
					<g class="st13">
						<path d="M250.65,371.41c-11.18,0-26.67-3.87-46.06-11.51c-14.35-5.66-25.63-11.39-25.74-11.45l1.82-3.56
							c0.44,0.23,44.42,22.53,69.98,22.53c10.1,0,17.92-4.88,23.23-14.5c4.09-7.4,5.1-14.95,5.11-15.03
							c0.27-1.6,6.3-37.57,8.37-47.17c1.08-5.01,3.97-13.22,6.76-21.16c2.55-7.26,5.2-14.77,5.73-17.98
							c1.09-6.52,0.3-20.79,0.29-20.94l3.99-0.23c0.03,0.6,0.82,14.86-0.34,21.82c-0.59,3.55-3.17,10.88-5.9,18.65
							c-2.75,7.83-5.6,15.92-6.62,20.68c-2.05,9.51-8.26,46.54-8.32,46.91C282.92,338.72,278.44,371.41,250.65,371.41z"/>
					</g>
					<g>
						<g>
							<path class="st3" d="M299.48,231.89c-2.56,0-4.98-0.94-6.7-2.64c-6.89-6.83-14.24-35.2-14.55-36.4l1.94-0.5
								c0.07,0.29,7.52,29.03,14.02,35.48c1.63,1.62,4.11,2.35,6.62,1.96c3.26-0.51,6.17-2.81,7.99-6.32
								c5.32-10.25,19.82-80.24,19.96-80.95l1.96,0.4c-0.6,2.89-14.7,70.97-20.15,81.46c-2.12,4.07-5.56,6.76-9.46,7.37
								C300.58,231.85,300.03,231.89,299.48,231.89z"/>
						</g>
						<g>
							<path class="st3" d="M328.01,148.28c0.14-2.81-0.55-5.09-1.02-7.86c-0.2-1.17,0.17-3.16,1.15-3.84
								c1.01-0.69,2.49,0.14,2.9,1.3s0.36,2.91,0.19,4.12c-0.45,3.33-1.39,4.3-1.93,6.28"/>
						</g>
						<g>
							<path class="st9" d="M300.47,232.45c-0.21,0-0.41,0-0.62-0.01c-4.53-0.22-8.46-2.76-10.51-6.8c-2.53-5-5.83-11.74-7.19-15.43
								l3.76-1.38c1,2.74,3.49,8.06,7,15c1.39,2.74,4.05,4.47,7.13,4.61c3.05,0.15,5.81-1.29,7.42-3.84l0.11-0.17
								c0.08-0.15,0.42-1.01,1.65-4.52l0.14-0.4c0.72-2.03,2.24-6.54,4.25-14.04l3.86,1.04c-2.05,7.64-3.6,12.27-4.35,14.35
								l-0.13,0.38c-1.52,4.32-1.79,4.92-2,5.25l-0.16,0.26C308.56,230.34,304.71,232.45,300.47,232.45z"/>
						</g>
						<g class="st13">
							<path d="M300.47,232.45c-0.21,0-0.41,0-0.62-0.01c-4.53-0.22-8.46-2.76-10.51-6.8c-2.53-5-5.83-11.74-7.19-15.43l3.76-1.38
								c1,2.74,3.49,8.06,7,15c1.39,2.74,4.05,4.47,7.13,4.61c3.05,0.15,5.81-1.29,7.42-3.84l0.11-0.17
								c0.08-0.15,0.42-1.01,1.65-4.52l0.14-0.4c0.72-2.03,2.24-6.54,4.25-14.04l3.86,1.04c-2.05,7.64-3.6,12.27-4.35,14.35
								l-0.13,0.38c-1.52,4.32-1.79,4.92-2,5.25l-0.16,0.26C308.56,230.34,304.71,232.45,300.47,232.45z"/>
						</g>
					</g>
				</g>
				<g>
					<circle class="st3" cx="172.56" cy="343.04" r="9.68"/>
				</g>
				<g>
					<circle class="st7" cx="173.1" cy="343.6" r="5.51"/>
				</g>
			</g>
			<g>
				<path class="st8" d="M166.46,352.72c0,0-2.13-5,0-6.82c2.13-1.82,24.29-7.81,24.29-7.81s15.64-4.52,17.31-4.73
					c1.67-0.21,22.02,1.16,22.02,1.16s11.54-3.19,13.21-3.19c1.67,0-0.76,10.63-1.06,14.12c-0.3,3.49-2.58,5.59-0.46,7.27
					c2.13,1.68,7.75,6.41,7.75,6.41s-5.93,1.65-10.03,1.19c-4.1-0.46-6.98-1.82-6.98-1.82s-8.35,6.23-12.91,7.14
					c-4.56,0.91-19.74,5.92-22.78,5.47c-3.04-0.46-5.31-4.55-5.31-4.55s-7.14,1.06-8.5-1.82s-1.82-5.16-1.82-5.16l2.88-1.82
					c0,0-3.8,1.06-5.47-1.67c-1.67-2.73-1.82-4.84-1.82-4.84S169.04,353.47,166.46,352.72z"/>
			</g>
		</g>
		<g>
			<g>
				<path class="st7" d="M280.43,261.39c0.02,0-0.01,0.21-0.09,0.58c-0.09,0.43-0.21,0.98-0.36,1.65c-0.17,0.71-0.36,1.58-0.54,2.61
					c-0.18,1.02-0.44,2.18-0.61,3.47c-0.2,1.29-0.41,2.7-0.55,4.23c-0.19,1.52-0.28,3.16-0.39,4.88c-0.15,3.45-0.15,7.24,0.14,11.21
					c0.32,3.97,0.9,7.72,1.57,11.11c0.38,1.68,0.71,3.29,1.13,4.77c0.37,1.49,0.8,2.85,1.19,4.1c0.36,1.26,0.79,2.36,1.13,3.34
					c0.33,0.98,0.66,1.82,0.93,2.49c0.25,0.64,0.45,1.16,0.6,1.57c0.13,0.36,0.19,0.56,0.18,0.56c-0.02,0.01-0.11-0.17-0.27-0.52
					c-0.18-0.4-0.41-0.91-0.7-1.54c-0.3-0.67-0.66-1.49-1.02-2.47c-0.37-0.97-0.82-2.07-1.21-3.33c-0.42-1.24-0.86-2.61-1.26-4.1
					c-0.44-1.48-0.79-3.09-1.19-4.78c-0.71-3.4-1.3-7.17-1.62-11.17c-0.29-4-0.28-7.82-0.1-11.28c0.13-1.73,0.23-3.38,0.44-4.9
					c0.16-1.53,0.39-2.95,0.62-4.24c0.19-1.3,0.47-2.45,0.68-3.47c0.2-1.02,0.43-1.89,0.63-2.6c0.18-0.66,0.33-1.2,0.45-1.63
					C280.35,261.57,280.41,261.38,280.43,261.39z"/>
			</g>
		</g>
	</g>
</g>
</svg>
