<?xml version="1.0" encoding="utf-8"?>
<!-- Generator: Adobe Illustrator 25.2.1, SVG Export Plug-In . SVG Version: 6.00 Build 0)  -->
<svg version="1.1" id="Capa_1" xmlns="http://www.w3.org/2000/svg" xmlns:xlink="http://www.w3.org/1999/xlink" x="0px" y="0px"
	 viewBox="0 0 1000 1000" style="enable-background:new 0 0 1000 1000;" xml:space="preserve">
<style type="text/css">
	.st0{fill:#272727;}
</style>
<path class="st0" d="M258.97,11.66c0,0-315.04,187.36-230.47,550.49c29.85-72.13,61.35-126.02,89.54-134.31
	c0,0,2.07,98.66,27.36,130.16c-7.83-74.61-49.74-219.28,115.65-315.87c29.02,16.17,46.01,136.38,46.01,168.71
	c0,0,149.23,57.41,197.73,214.72c65.29,115.65,66.53,78.97,79.59,127.47c-2.49,26.32-13.68,31.71-13.68,31.71
	s-22.8,31.5-23.63,37.72c-19.9,36.06-86.22,67.57-143.01,43.94c12.02,13.26,76.27,15.75,76.27,15.75s-18.6,33.58-95.34,19.48
	C329.03,912,312.45,912,278.87,913.66c66.74,9.53,161.66,28.19,215.97,54.72c195.24,42.7,315.87,52.64,461.36-184.26
	c0,0,19.9-45.39-17.41-70.88s-145.5-85.81-207.68-106.95c-168.5-72.75-110.68-139.9-146.12-199.59
	c-47.88-83.32-260.53-147.36-260.53-147.36S334.62,133.94,258.97,11.66z"/>
<path class="st0" d="M457.53,599.25c0,0-39.17,16.36-40.62,22.17c-1.45,5.8,25.7,46.43,28.6,51.4c1.45-6.43-2.69-15.34-2.49-17
	c0.21-1.66,16.17-20.73,1.66-42.28C454.85,605.16,457.53,599.25,457.53,599.25z"/>
</svg>
